# Made in Blockbench 5.1.6
mtllib Pond.mtl

o plane
v 0.3125 0 -0.16132079056884252
v 0.22279967253211422 0 -0.375
v -0.06097943019576768 0 -0.375
v -0.19017172296794538 0 -0.3065864386442845
v -0.27922042349306175 -2.220446049250313e-16 -0.34171746466290087
v -0.3125 0 -0.3079494559360576
v -0.375 0 -0.1573888094498706
v -0.2666054836111027 -2.220446049250313e-16 0.06628607796159613
v -0.317928790439435 0 0.21529862418300594
v -0.18091150578166826 0 0.375
v 0.04960990090209316 0 0.2288495666947501
v 0.1415231060097233 0 0.31649010316565596
v 0.23374732836280376 0 0.22426588081257526
v 0.3125 0 0.06593166533935468
v 0.3059917382114863 -2.220446049250313e-16 -0.01709714461932088
vt 0.037362479533257144 1
vt 0.019626285612764516 1
vt 0.011551767314503417 0.9935987311012195
vt 0.04256198363821789 0.9665120135316323
vt 0.005986223531683642 0.9968858446468211
vt -1.0408340855860843e-17 0.9937262648829059
vt 1.0408340855860843e-17 0.9796387190128534
vt 0.011551767314503417 0.9935987311012195
vt 0.046875 0.980006623678956
vt 0.037362479533257144 1
vt 0.04256198363821789 0.9665120135316323
vt 0.011551767314503417 0.9935987311012195
vt 0.019626285612764516 1
vt 0.005986223531683642 0.9968858446468211
vt 0.006774657274306078 0.9587100745766928
vt 1.0408340855860843e-17 0.9796387190128534
vt 0.003566950597535319 0.9447673801934029
vt 1.0408340855860843e-17 0.9796387190128534
vt 0.006774657274306078 0.9587100745766928
vt 0.011551767314503417 0.9935987311012195
vt 0.006774657274306078 0.9587100745766928
vt 0.003566950597535319 0.9447673801934029
vt 0.012130530888645727 0.9298245614035088
vt 0.026538118806380823 0.9376515025314853
vt 0.026538118806380823 0.9376515025314853
vt 0.012130530888645727 0.9298245614035088
vt 0.032282694125607705 0.9352991716336229
vt 0.026538118806380823 0.9376515025314853
vt 0.032282694125607705 0.9352991716336229
vt 0.03804670802267523 0.9439283386374199
vt 0.03804670802267523 0.9439283386374199
vt 0.046875 0.952895282775265
vt 0.04256198363821789 0.9665120135316323
vt 0.011551767314503417 0.9935987311012195
vt 0.006774657274306078 0.9587100745766928
vt 0.026538118806380823 0.9376515025314853
vt 0.026538118806380823 0.9376515025314853
vt 0.03804670802267523 0.9439283386374199
vt 0.04256198363821789 0.9665120135316323
vt 0.011551767314503417 0.9935987311012195
vt 0.026538118806380823 0.9376515025314853
vt 0.04256198363821789 0.9665120135316323
vn 0 1 0
vn 1.1527619163811746e-14 1 4.7852889486917376e-15
vn -3.3115353379603984e-15 1 1.390148367860865e-15
vn -1.428948635370783e-15 1 -2.698429182736926e-15
vn 2.9948465565902154e-15 1 -4.586135726842469e-16
vn 5.760115946941678e-16 1 7.135718655360196e-16
vn 1.2392955961682782e-15 1 -1.0632652136315317e-15
vn 0 1 0
vn 0 1 0
vn -4.644765651599515e-15 1 -2.3102252605281697e-15
vn -9.122044556132783e-16 1 4.0850795144031834e-16
vn -2.3072265611493555e-17 1 -9.268670987931784e-16
vn 6.05813694752021e-16 1 -2.7129851194517235e-16
usemtl m_82e0f3a0-f343-4390-1c56-9f91035c3664
f 2/1/1 3/2/1 4/3/1 15/4/1
f 5/5/2 6/6/2 7/7/2 4/8/2
f 1/9/3 2/10/3 15/11/3
f 4/12/4 3/13/4 5/14/4
f 8/15/5 7/16/5 9/17/5
f 7/18/6 8/19/6 4/20/6
f 8/21/7 9/22/7 10/23/7 11/24/7
f 11/25/8 10/26/8 12/27/8
f 11/28/9 12/29/9 13/30/9
f 13/31/10 14/32/10 15/33/10
f 4/34/11 8/35/11 11/36/11
f 11/37/12 13/38/12 15/39/12
f 4/40/13 11/41/13 15/42/13