# Made in Blockbench 5.1.6
mtllib LowPoly-TreeModel-01.mtl

o tube
v 0.004860580624063318 0.44033547825653835 0.02780716091210647
v 0.14297319061129368 0.6441580853233086 -0.1646441363322097
v -0.004091698020214529 0.43888892902930515 0.019850540065351058
v 0.13402091196701582 0.6427115360960755 -0.17260075717896517
v 0.003391446398318662 0.4169016523955995 0.0019343841932086825
v 0.14150405638554903 0.6207242594623699 -0.19051691305110752
v -0.005053784774443577 0.4235469956894457 0.002911661449755007
v 0.13305882521278678 0.6273696027562161 -0.18953963579456118
v -0.022535351229575548 0.41271295625909227 -0.02110816589219265
v 0.11557725875765482 0.6165355633258627 -0.2135594631365088
v -0.02202781460479189 0.4208044638775772 -0.012174324393423572
v 0.11608479538243849 0.6246270709443476 -0.20462562163773979
v -0.0469930146317251 0.43195808598352387 -0.018277939258696183
v 0.09111959535550526 0.6357806930502943 -0.2107292365030124
v -0.038040735987447255 0.43340463521075706 -0.01032131841194077
v 0.10007187399978312 0.6372272422775275 -0.20277261565625698
v -0.045523880405980446 0.4553919118444627 0.007594837460201606
v 0.09258872958124992 0.6592145189112331 -0.18485645978411458
v -0.03707864923321821 0.44874656855061645 0.006617560203655282
v 0.10103396075401216 0.6525691756173868 -0.18583373704066092
v -0.019597082778086236 0.45958060798096995 0.03063738754560294
v 0.11851552720914413 0.6634032150477402 -0.16181390969871326
v -0.020104619402869894 0.451489100362485 0.02170354604683386
v 0.11800799058436046 0.6553117074292554 -0.17074775119748234
vt 0.28125 0.703125
vt 0.28515625 0.703125
vt 0.28515625 0.7421875
vt 0.28125 0.7421875
vt 0.2998046875 0.8125
vt 0.296875 0.8125
vt 0.296875 0.7734375
vt 0.2998046875 0.7734375
vt 0.00518515625 0.9595890625
vt 0.006463281249999999 0.95703125
vt 0.0078125 0.95703125
vt 0.005859375 0.9609375
vt 0.248046875 0.8984375
vt 0.25 0.90234375
vt 0.24865078125 0.90234375
vt 0.24737265625 0.89978671875
vt 0.21875 0.671875
vt 0.22265625 0.671875
vt 0.22265625 0.7109375
vt 0.21875 0.7109375
vt 0.2060546875 0.703125
vt 0.203125 0.703125
vt 0.203125 0.6640625
vt 0.2060546875 0.6640625
vt 0.006463281249999999 0.95703125
vt 0.00518515625 0.95447421875
vt 0.005859375 0.953125
vt 0.0078125 0.95703125
vt 0.25 0.90234375
vt 0.248046875 0.90625
vt 0.24737265625 0.90490078125
vt 0.24865078125 0.90234375
vt 0.0234375 0.6796875
vt 0.02734375 0.6796875
vt 0.02734375 0.71875
vt 0.0234375 0.71875
vt 0.1748046875 0.703125
vt 0.171875 0.703125
vt 0.171875 0.6640625
vt 0.1748046875 0.6640625
vt 0.00518515625 0.95447421875
vt 0.00262734375 0.95447421875
vt 0.001953125 0.953125
vt 0.005859375 0.953125
vt 0.248046875 0.90625
vt 0.244140625 0.90625
vt 0.24481484375 0.90490078125
vt 0.24737265625 0.90490078125
vt 0.234375 0.671875
vt 0.23828125 0.671875
vt 0.23828125 0.7109375
vt 0.234375 0.7109375
vt 0.2998046875 0.765625
vt 0.296875 0.765625
vt 0.296875 0.7265625
vt 0.2998046875 0.7265625
vt 0.00262734375 0.95447421875
vt 0.0013492187500000002 0.95703125
vt 0 0.95703125
vt 0.001953125 0.953125
vt 0.244140625 0.90625
vt 0.2421875 0.90234375
vt 0.24353671875 0.90234375
vt 0.24481484375 0.90490078125
vt 0.25 0.671875
vt 0.25390625 0.671875
vt 0.25390625 0.7109375
vt 0.25 0.7109375
vt 0.2998046875 0.71875
vt 0.296875 0.71875
vt 0.296875 0.6796875
vt 0.2998046875 0.6796875
vt 0.0013492187500000002 0.95703125
vt 0.00262734375 0.9595890625
vt 0.001953125 0.9609375
vt 0 0.95703125
vt 0.2421875 0.90234375
vt 0.244140625 0.8984375
vt 0.24481484375 0.89978671875
vt 0.24353671875 0.90234375
vt 0.0390625 0.6796875
vt 0.04296875 0.6796875
vt 0.04296875 0.71875
vt 0.0390625 0.71875
vt 0.1904296875 0.703125
vt 0.1875 0.703125
vt 0.1875 0.6640625
vt 0.1904296875 0.6640625
vt 0.00262734375 0.9595890625
vt 0.00518515625 0.9595890625
vt 0.005859375 0.9609375
vt 0.001953125 0.9609375
vt 0.244140625 0.8984375
vt 0.248046875 0.8984375
vt 0.24737265625 0.89978671875
vt 0.24481484375 0.89978671875
vn 0.8960485045879971 -0.3531770761672028 0.26900377375717266
vn -0.8960479907061375 0.3531852718864424 -0.26899472499287774
vn -0.44196035195913713 -0.652232342613665 0.6158441511818118
vn 0.44196035195913713 0.652232342613665 -0.6158441511818118
vn 0.5039898426251918 -0.748478432303348 -0.4310153998494218
vn -0.5039989102250486 0.7484769672929983 0.43100734091641574
vn -0.44196035195913713 -0.652232342613665 0.6158441511818118
vn 0.44196035195913713 0.652232342613665 -0.6158441511818118
vn -0.4383349096582218 -0.44196035195913713 -0.782645228868786
vn 0.4383349096582218 0.44196035195913713 0.782645228868786
vn -0.44196035195913713 -0.652232342613665 0.6158441511818118
vn 0.44196035195913713 0.652232342613665 -0.6158441511818118
vn -0.8960485045879971 0.3531770761672028 -0.26900377375717266
vn 0.8960479907061375 -0.3531852718864424 0.26899472499287774
vn -0.44196035195913713 -0.652232342613665 0.6158441511818118
vn 0.44196035195913713 0.652232342613665 -0.6158441511818118
vn -0.5039898426251918 0.748478432303348 0.4310153998494218
vn 0.5039989102250486 -0.7484769672929983 -0.43100734091641574
vn -0.44196035195913713 -0.652232342613665 0.6158441511818118
vn 0.44196035195913713 0.652232342613665 -0.6158441511818118
vn 0.4383349096582218 0.44196035195913713 0.782645228868786
vn -0.4383349096582218 -0.44196035195913713 -0.782645228868786
vn -0.44196035195913713 -0.652232342613665 0.6158441511818118
vn 0.44196035195913713 0.652232342613665 -0.6158441511818118
usemtl m_d0200561-35ef-d016-ce15-c77ca7b1f513
f 1/1/1 5/2/1 6/3/1 2/4/1
f 4/5/2 8/6/2 7/7/2 3/8/2
f 3/9/3 7/10/3 5/11/3 1/12/3
f 2/13/4 6/14/4 8/15/4 4/16/4
f 5/17/5 9/18/5 10/19/5 6/20/5
f 8/21/6 12/22/6 11/23/6 7/24/6
f 7/25/7 11/26/7 9/27/7 5/28/7
f 6/29/8 10/30/8 12/31/8 8/32/8
f 9/33/9 13/34/9 14/35/9 10/36/9
f 12/37/10 16/38/10 15/39/10 11/40/10
f 11/41/11 15/42/11 13/43/11 9/44/11
f 10/45/12 14/46/12 16/47/12 12/48/12
f 13/49/13 17/50/13 18/51/13 14/52/13
f 16/53/14 20/54/14 19/55/14 15/56/14
f 15/57/15 19/58/15 17/59/15 13/60/15
f 14/61/16 18/62/16 20/63/16 16/64/16
f 17/65/17 21/66/17 22/67/17 18/68/17
f 20/69/18 24/70/18 23/71/18 19/72/18
f 19/73/19 23/74/19 21/75/19 17/76/19
f 18/77/20 22/78/20 24/79/20 20/80/20
f 21/81/21 1/82/21 2/83/21 22/84/21
f 24/85/22 4/86/22 3/87/22 23/88/22
f 23/89/23 3/90/23 1/91/23 21/92/23
f 22/93/24 2/94/24 4/95/24 24/96/24
o tube
v 0.030686455893441905 0.44174662705045453 -0.005918650111388524
v -0.1101633216581922 0.5653940068440488 -0.011295976011298729
v 0.022723489856863816 0.4326973911640503 -0.005422550662544632
v -0.1181262876947703 0.5563447709576446 -0.010799876562454838
v 0.016692576384444782 0.424629334260836 -0.03297179685704721
v -0.12415720116718934 0.5482767140544302 -0.03834912275695741
v 0.013561606268413282 0.42149060867617605 -0.02313396093000797
v -0.12728817128322084 0.5451379884697704 -0.028511286829918173
v -0.006368694135358871 0.39842219037171 -0.03153425166225053
v -0.14721847168699298 0.5220695701653043 -0.036911577562160736
v -0.0015365168669920493 0.4043328824704763 -0.022193084997893985
v -0.14238629441862616 0.5279802622640706 -0.02757041089780419
v -0.015436085146165401 0.3893323392722026 -0.003043559721795151
v -0.15628586269779954 0.512979719065797 -0.008420885621705355
v -0.007473119109587312 0.39838157515860684 -0.0035396591706390416
v -0.14832289666122145 0.522028954952201 -0.008916985070549246
v -0.0014422056371682923 0.40644963206182116 0.02400958702386354
v -0.14229198318880243 0.5300970118554155 0.018632261123953334
v 0.0016887644788632222 0.40958835764648105 0.014171751096824295
v -0.1391610130727709 0.5332357374400754 0.00879442519691409
v 0.021619064882635375 0.4326567759509471 0.02257204182906685
v -0.11923071266899876 0.5563041557445414 0.017194715929156647
v 0.016786887614268553 0.4267460838521808 0.013230875164710311
v -0.12406288993736558 0.5503934636457751 0.007853549264800107
vt 0.3125 0.7578125
vt 0.31640625 0.7578125
vt 0.31640625 0.78125
vt 0.3125 0.78125
vt 0.1201171875 0.6796875
vt 0.1171875 0.6796875
vt 0.1171875 0.65625
vt 0.1201171875 0.65625
vt 0.03643515625 0.6705265625
vt 0.03771328125 0.66796875
vt 0.0390625 0.66796875
vt 0.037109375 0.671875
vt 0.333984375 0.9609375
vt 0.3359375 0.96484375
vt 0.33458828125 0.96484375
vt 0.33331015625 0.96228671875
vt 0.3125 0.7265625
vt 0.31640625 0.7265625
vt 0.31640625 0.75
vt 0.3125 0.75
vt 0.1357421875 0.6796875
vt 0.1328125 0.6796875
vt 0.1328125 0.65625
vt 0.1357421875 0.65625
vt 0.03771328125 0.66796875
vt 0.03643515625 0.6654117187499999
vt 0.037109375 0.6640625
vt 0.0390625 0.66796875
vt 0.3359375 0.96484375
vt 0.333984375 0.96875
vt 0.33331015625 0.96740078125
vt 0.33458828125 0.96484375
vt 0.28125 0.9765625
vt 0.28515625 0.9765625
vt 0.28515625 1
vt 0.28125 1
vt 0.0888671875 0.6796875
vt 0.0859375 0.6796875
vt 0.0859375 0.65625
vt 0.0888671875 0.65625
vt 0.03643515625 0.6654117187499999
vt 0.03387734375 0.6654117187499999
vt 0.033203125 0.6640625
vt 0.037109375 0.6640625
vt 0.333984375 0.96875
vt 0.330078125 0.96875
vt 0.33075234375 0.96740078125
vt 0.33331015625 0.96740078125
vt 0.3125 0.6953125
vt 0.31640625 0.6953125
vt 0.31640625 0.71875
vt 0.3125 0.71875
vt 0.3310546875 1
vt 0.328125 1
vt 0.328125 0.9765625
vt 0.3310546875 0.9765625
vt 0.03387734375 0.6654117187499999
vt 0.03259921875 0.66796875
vt 0.03125 0.66796875
vt 0.033203125 0.6640625
vt 0.330078125 0.96875
vt 0.328125 0.96484375
vt 0.32947421875 0.96484375
vt 0.33075234375 0.96740078125
vt 0.3125 0.6640625
vt 0.31640625 0.6640625
vt 0.31640625 0.6875
vt 0.3125 0.6875
vt 0.0185546875 0.671875
vt 0.015625 0.671875
vt 0.015625 0.6484375
vt 0.0185546875 0.6484375
vt 0.03259921875 0.66796875
vt 0.03387734375 0.6705265625
vt 0.033203125 0.671875
vt 0.03125 0.66796875
vt 0.328125 0.96484375
vt 0.330078125 0.9609375
vt 0.33075234375 0.96228671875
vt 0.32947421875 0.96484375
vt 0.3125 0.7890625
vt 0.31640625 0.7890625
vt 0.31640625 0.8125
vt 0.3125 0.8125
vt 0.1044921875 0.6796875
vt 0.1015625 0.6796875
vt 0.1015625 0.65625
vt 0.1044921875 0.65625
vt 0.03387734375 0.6705265625
vt 0.03643515625 0.6705265625
vt 0.037109375 0.671875
vt 0.033203125 0.671875
vt 0.330078125 0.9609375
vt 0.333984375 0.9609375
vt 0.33331015625 0.96228671875
vt 0.33075234375 0.96228671875
vn 0.5246689443065202 0.5701711531390624 -0.6321608616549694
vn -0.5246640500483187 -0.5701651664949899 0.6321703231745667
vn 0.7511988136087152 -0.6594526922325029 0.028679071466187672
vn -0.7511988136087152 0.6594526922325029 -0.028679071466187672
vn -0.005621195730931505 -0.04983771406450832 -0.998741510309539
vn 0.005613130282399959 0.04982854837501079 0.9987420130019926
vn 0.7511988136087152 -0.6594526922325029 0.028679071466187672
vn -0.7511988136087152 0.6594526922325029 -0.028679071466187672
vn -0.5928824004608124 -0.6931909868599121 -0.40984962481379206
vn 0.5928824004608124 0.6931909868599121 0.40984962481379206
vn 0.7511988136087152 -0.6594526922325029 0.028679071466187672
vn -0.7511988136087152 0.6594526922325029 -0.028679071466187672
vn -0.5246689443065202 -0.5701711531390624 0.6321608616549694
vn 0.5246640500483187 0.5701651664949899 -0.6321703231745667
vn 0.7511988136087152 -0.6594526922325029 0.028679071466187672
vn -0.7511988136087152 0.6594526922325029 -0.028679071466187672
vn 0.005621195730931505 0.04983771406450832 0.998741510309539
vn -0.005613130282399959 -0.04982854837501079 -0.9987420130019926
vn 0.7511988136087152 -0.6594526922325029 0.028679071466187672
vn -0.7511988136087152 0.6594526922325029 -0.028679071466187672
vn 0.5928824004608124 0.6931909868599121 0.40984962481379206
vn -0.5928824004608124 -0.6931909868599121 -0.40984962481379206
vn 0.7511988136087152 -0.6594526922325029 0.028679071466187672
vn -0.7511988136087152 0.6594526922325029 -0.028679071466187672
usemtl m_d0200561-35ef-d016-ce15-c77ca7b1f513
f 25/97/25 29/98/25 30/99/25 26/100/25
f 28/101/26 32/102/26 31/103/26 27/104/26
f 27/105/27 31/106/27 29/107/27 25/108/27
f 26/109/28 30/110/28 32/111/28 28/112/28
f 29/113/29 33/114/29 34/115/29 30/116/29
f 32/117/30 36/118/30 35/119/30 31/120/30
f 31/121/31 35/122/31 33/123/31 29/124/31
f 30/125/32 34/126/32 36/127/32 32/128/32
f 33/129/33 37/130/33 38/131/33 34/132/33
f 36/133/34 40/134/34 39/135/34 35/136/34
f 35/137/35 39/138/35 37/139/35 33/140/35
f 34/141/36 38/142/36 40/143/36 36/144/36
f 37/145/37 41/146/37 42/147/37 38/148/37
f 40/149/38 44/150/38 43/151/38 39/152/38
f 39/153/39 43/154/39 41/155/39 37/156/39
f 38/157/40 42/158/40 44/159/40 40/160/40
f 41/161/41 45/162/41 46/163/41 42/164/41
f 44/165/42 48/166/42 47/167/42 43/168/42
f 43/169/43 47/170/43 45/171/43 41/172/43
f 42/173/44 46/174/44 48/175/44 44/176/44
f 45/177/45 25/178/45 26/179/45 46/180/45
f 48/181/46 28/182/46 27/183/46 47/184/46
f 47/185/47 27/186/47 25/187/47 45/188/47
f 46/189/48 26/190/48 28/191/48 48/192/48
o tube
v -0.02532689782994719 0.6115606090726932 0.2590104215230247
v 0.03055945795261575 0.42557913483535303 0.014176076551061123
v -0.03237364208417856 0.6185164227988401 0.25211813135841127
v 0.02351271369838437 0.4325349485615 0.0072837863864477215
v -0.05970113604798226 0.6080010771285456 0.2538679897764314
v -0.003814780265419329 0.4220196028912055 0.009033644804467833
v -0.05487831617509829 0.6161862342798128 0.24875123311098393
v 0.0010080396074646364 0.4302047600424726 0.003916888139020358
v -0.08010833148326618 0.6281460257846504 0.2339072647618176
v -0.024221975700703252 0.44216455154731027 -0.01092708021014599
v -0.0682390466970065 0.6293748951201585 0.23568309462684894
v -0.012352690914443576 0.4433934208828184 -0.009151250345114603
v -0.06614128870051506 0.6518505063849027 0.21908897149379714
v -0.010254932917952125 0.4658690321475626 -0.02574537347816641
v -0.059094544446283676 0.6448946926587558 0.2259812616584106
v -0.0032081886637207457 0.45891321842141564 -0.01885308331355301
v -0.03176705048247998 0.6554100383290503 0.22423140324039045
v 0.024119305300082952 0.46942856409171013 -0.02060294173157312
v -0.03658987035536394 0.6472248811777832 0.22934815990583793
v 0.019296485427198987 0.461243406940443 -0.015486185066125646
v -0.011359855047196048 0.6352650896729455 0.24419212825500425
v 0.044526500735366875 0.44928361543560535 -0.0006422167169592985
v -0.02322913983345573 0.6340362203374373 0.24241629838997292
v 0.0326572159491072 0.4480547461000972 -0.002418046581990685
vt 0.296875 0.9140625
vt 0.30078125 0.9140625
vt 0.30078125 0.953125
vt 0.296875 0.953125
vt 0.3154296875 1
vt 0.3125 1
vt 0.3125 0.9609375
vt 0.3154296875 0.9609375
vt 0.05206015625 0.6705265625
vt 0.05333828125 0.66796875
vt 0.0546875 0.66796875
vt 0.052734375 0.671875
vt 0.333984375 0.9453125
vt 0.3359375 0.94921875
vt 0.33458828125 0.94921875
vt 0.33331015625 0.94666171875
vt 0.296875 0.8671875
vt 0.30078125 0.8671875
vt 0.30078125 0.90625
vt 0.296875 0.90625
vt 0.3154296875 0.953125
vt 0.3125 0.953125
vt 0.3125 0.9140625
vt 0.3154296875 0.9140625
vt 0.05333828125 0.66796875
vt 0.05206015625 0.6654117187499999
vt 0.052734375 0.6640625
vt 0.0546875 0.66796875
vt 0.3359375 0.94921875
vt 0.333984375 0.953125
vt 0.33331015625 0.95177578125
vt 0.33458828125 0.94921875
vt 0.265625 0.671875
vt 0.26953125 0.671875
vt 0.26953125 0.7109375
vt 0.265625 0.7109375
vt 0.0029296875 0.6953125
vt 0 0.6953125
vt 0 0.65625
vt 0.0029296875 0.65625
vt 0.05206015625 0.6654117187499999
vt 0.04950234375 0.6654117187499999
vt 0.048828125 0.6640625
vt 0.052734375 0.6640625
vt 0.333984375 0.953125
vt 0.330078125 0.953125
vt 0.33075234375 0.95177578125
vt 0.33331015625 0.95177578125
vt 0.296875 0.8203125
vt 0.30078125 0.8203125
vt 0.30078125 0.859375
vt 0.296875 0.859375
vt 0.3154296875 0.90625
vt 0.3125 0.90625
vt 0.3125 0.8671875
vt 0.3154296875 0.8671875
vt 0.04950234375 0.6654117187499999
vt 0.04822421875 0.66796875
vt 0.046875 0.66796875
vt 0.048828125 0.6640625
vt 0.330078125 0.953125
vt 0.328125 0.94921875
vt 0.32947421875 0.94921875
vt 0.33075234375 0.95177578125
vt 0.15625 0.6640625
vt 0.16015625 0.6640625
vt 0.16015625 0.703125
vt 0.15625 0.703125
vt 0.3154296875 0.859375
vt 0.3125 0.859375
vt 0.3125 0.8203125
vt 0.3154296875 0.8203125
vt 0.04822421875 0.66796875
vt 0.04950234375 0.6705265625
vt 0.048828125 0.671875
vt 0.046875 0.66796875
vt 0.328125 0.94921875
vt 0.330078125 0.9453125
vt 0.33075234375 0.94666171875
vt 0.32947421875 0.94921875
vt 0.296875 0.9609375
vt 0.30078125 0.9609375
vt 0.30078125 1
vt 0.296875 1
vt 0.2841796875 0.6953125
vt 0.28125 0.6953125
vt 0.28125 0.65625
vt 0.2841796875 0.65625
vt 0.04950234375 0.6705265625
vt 0.05206015625 0.6705265625
vt 0.052734375 0.671875
vt 0.048828125 0.671875
vt 0.330078125 0.9453125
vt 0.333984375 0.9453125
vt 0.33331015625 0.94666171875
vt 0.33075234375 0.94666171875
vn -0.007776060396164632 -0.7971374053665736 0.6037478694373689
vn 0.007788082440705004 0.7971386502176651 -0.6037460708783585
vn -0.17883633850420116 0.595140717559488 0.7834699039102833
vn 0.17883633850420116 -0.595140717559488 -0.7834699039102833
vn -0.7917441215399467 -0.5597862424667504 0.2445007336428559
vn 0.7917369842688721 0.5597932879187426 -0.24450771468801516
vn -0.17883633850420116 0.595140717559488 0.7834699039102833
vn 0.17883633850420116 -0.595140717559488 -0.7834699039102833
vn -0.8765029384531039 0.2653666673913155 -0.4016505081793147
vn 0.8765029384531039 -0.2653666673913155 0.4016505081793147
vn -0.17883633850420116 0.595140717559488 0.7834699039102833
vn 0.17883633850420116 -0.595140717559488 -0.7834699039102833
vn 0.007776060396164632 0.7971374053665736 -0.6037478694373689
vn -0.007788082440705004 -0.7971386502176651 0.6037460708783585
vn -0.17883633850420116 0.595140717559488 0.7834699039102833
vn 0.17883633850420116 -0.595140717559488 -0.7834699039102833
vn 0.7917441215399467 0.5597862424667504 -0.2445007336428559
vn -0.7917369842688721 -0.5597932879187426 0.24450771468801516
vn -0.17883633850420116 0.595140717559488 0.7834699039102833
vn 0.17883633850420116 -0.595140717559488 -0.7834699039102833
vn 0.8765029384531039 -0.2653666673913155 0.4016505081793147
vn -0.8765029384531039 0.2653666673913155 -0.4016505081793147
vn -0.17883633850420116 0.595140717559488 0.7834699039102833
vn 0.17883633850420116 -0.595140717559488 -0.7834699039102833
usemtl m_d0200561-35ef-d016-ce15-c77ca7b1f513
f 49/193/49 53/194/49 54/195/49 50/196/49
f 52/197/50 56/198/50 55/199/50 51/200/50
f 51/201/51 55/202/51 53/203/51 49/204/51
f 50/205/52 54/206/52 56/207/52 52/208/52
f 53/209/53 57/210/53 58/211/53 54/212/53
f 56/213/54 60/214/54 59/215/54 55/216/54
f 55/217/55 59/218/55 57/219/55 53/220/55
f 54/221/56 58/222/56 60/223/56 56/224/56
f 57/225/57 61/226/57 62/227/57 58/228/57
f 60/229/58 64/230/58 63/231/58 59/232/58
f 59/233/59 63/234/59 61/235/59 57/236/59
f 58/237/60 62/238/60 64/239/60 60/240/60
f 61/241/61 65/242/61 66/243/61 62/244/61
f 64/245/62 68/246/62 67/247/62 63/248/62
f 63/249/63 67/250/63 65/251/63 61/252/63
f 62/253/64 66/254/64 68/255/64 64/256/64
f 65/257/65 69/258/65 70/259/65 66/260/65
f 68/261/66 72/262/66 71/263/66 67/264/66
f 67/265/67 71/266/67 69/267/67 65/268/67
f 66/269/68 70/270/68 72/271/68 68/272/68
f 69/273/69 49/274/69 50/275/69 70/276/69
f 72/277/70 52/278/70 51/279/70 71/280/70
f 71/281/71 51/282/71 49/283/71 69/284/71
f 70/285/72 50/286/72 52/287/72 72/288/72
o tube
v 0.016746875 0 0.0625
v 0.016746875 0.625 0.0625
v 0.000590625 0 0.002205
v 0.000590625 0.625 0.002205
v 0.045753125 0 0.045753125
v 0.045753125 0.625 0.045753125
v 0.00161375 0 0.00161375
v 0.00161375 0.625 0.00161375
v 0.0625 0 0.016746875
v 0.0625 0.625 0.016746875
v 0.002205 0 0.000590625
v 0.002205 0.625 0.000590625
v 0.0625 0 -0.016746875
v 0.0625 0.625 -0.016746875
v 0.002205 0 -0.000590625
v 0.002205 0.625 -0.000590625
v 0.045753125 0 -0.045753125
v 0.045753125 0.625 -0.045753125
v 0.00161375 0 -0.00161375
v 0.00161375 0.625 -0.00161375
v 0.016746875 0 -0.0625
v 0.016746875 0.625 -0.0625
v 0.000590625 0 -0.002205
v 0.000590625 0.625 -0.002205
v -0.016746875 0 -0.0625
v -0.016746875 0.625 -0.0625
v -0.000590625 0 -0.002205
v -0.000590625 0.625 -0.002205
v -0.045753125 0 -0.045753125
v -0.045753125 0.625 -0.045753125
v -0.00161375 0 -0.00161375
v -0.00161375 0.625 -0.00161375
v -0.0625 0 -0.016746875
v -0.0625 0.625 -0.016746875
v -0.002205 0 -0.000590625
v -0.002205 0.625 -0.000590625
v -0.0625 0 0.016746875
v -0.0625 0.625 0.016746875
v -0.002205 0 0.000590625
v -0.002205 0.625 0.000590625
v -0.045753125 0 0.045753125
v -0.045753125 0.625 0.045753125
v -0.00161375 0 0.00161375
v -0.00161375 0.625 0.00161375
v -0.016746875 0 0.0625
v -0.016746875 0.625 0.0625
v -0.000590625 0 0.002205
v -0.000590625 0.625 0.002205
vt 0.141253515625 0.6875
vt 0.145440234375 0.6875
vt 0.145440234375 0.765625
vt 0.141253515625 0.765625
vt 0.328539453125 0.8515625
vt 0.328391796875 0.8515625
vt 0.328391796875 0.7734375
vt 0.328539453125 0.7734375
vt 0.2500734375 0.78152578125
vt 0.2502015625 0.7814515625
vt 0.25571875 0.78696875
vt 0.25209296875 0.7890625
vt 0.28334296875 0.921875
vt 0.28696875 0.92396796875
vt 0.2814515625 0.9294859375
vt 0.2813234375 0.92941171875
vt 0.06256718750010469 0.6875
vt 0.06675390625010469 0.6875
vt 0.06675390625010469 0.765625
vt 0.06256718750010469 0.765625
vt 0.06320937499999263 0.671875
vt 0.06306171875000001 0.6718749985234376
vt 0.0630625 0.5937499985273438
vt 0.0632101562499926 0.5937500000039062
vt 0.2502015625 0.7814515625
vt 0.25027578125 0.7813234375
vt 0.2578125 0.78334375
vt 0.25571875 0.78696875
vt 0.28696875 0.92396796875
vt 0.2890625 0.92759375
vt 0.28152578125 0.92961328125
vt 0.2814515625 0.9294859375
vt 0.06675390625010469 0.6875
vt 0.07094062500010469 0.6875
vt 0.07094140625010469 0.765625
vt 0.06675390625010469 0.765625
vt 0.06306171875000001 0.6718749985234376
vt 0.0629140625 0.6718749985234376
vt 0.06291484375000002 0.5937499985234376
vt 0.06306250000000001 0.5937499985234376
vt 0.25027578125 0.7813234375
vt 0.25027578125 0.78117578125
vt 0.2578125 0.77915703125
vt 0.2578125 0.78334375
vt 0.2890625 0.92759375
vt 0.2890625 0.93178046875
vt 0.28152578125 0.9297609375
vt 0.28152578125 0.92961328125
vt 0.07094062500010469 0.6875
vt 0.07512734374989535 0.6874999581328125
vt 0.07512812499989531 0.7656249581289063
vt 0.07094140625010464 0.7656249999960938
vt 0.0629140625 0.6718749985234376
vt 0.0627664062500074 0.671874997046875
vt 0.06276718750000737 0.5937499970507812
vt 0.06291484374999999 0.5937499985273438
vt 0.25027578125 0.78117578125
vt 0.2502015625 0.7810484375
vt 0.25571953125 0.77553046875
vt 0.2578125 0.77915703125
vt 0.2890625 0.93178046875
vt 0.28696953125 0.93540625
vt 0.2814515625 0.9298890625
vt 0.28152578125 0.9297609375
vt 0.086005078125 0.6875
vt 0.090191796875 0.6875
vt 0.090191796875 0.765625
vt 0.086005078125 0.765625
vt 0.328834765625 0.9375
vt 0.328687109375 0.9375
vt 0.328687109375 0.859375
vt 0.328834765625 0.859375
vt 0.2502015625 0.7810484375
vt 0.25007421875 0.78097421875
vt 0.25209375 0.7734375
vt 0.25571953125 0.77553046875
vt 0.28696953125 0.93540625
vt 0.28334375 0.9375
vt 0.28132421875 0.92996328125
vt 0.2814515625 0.9298890625
vt 0.090191796875 0.6875
vt 0.09437851562499999 0.6875
vt 0.09437851562499999 0.765625
vt 0.090191796875 0.765625
vt 0.328687109375 0.9375
vt 0.328539453125 0.9375
vt 0.328539453125 0.859375
vt 0.328687109375 0.859375
vt 0.25007421875 0.78097421875
vt 0.2499265625 0.78097421875
vt 0.24790703125 0.7734375
vt 0.25209375 0.7734375
vt 0.28334375 0.9375
vt 0.27915703125 0.9375
vt 0.2811765625 0.92996328125
vt 0.28132421875 0.92996328125
vt 0.09437851562499999 0.6875
vt 0.098565234375 0.6875
vt 0.098565234375 0.765625
vt 0.09437851562499999 0.765625
vt 0.328539453125 0.9375
vt 0.328391796875 0.9375
vt 0.328391796875 0.859375
vt 0.328539453125 0.859375
vt 0.2499265625 0.78097421875
vt 0.2497984375 0.7810484375
vt 0.24428125 0.77553046875
vt 0.24790703125 0.7734375
vt 0.27915703125 0.9375
vt 0.27553125 0.93540703125
vt 0.2810484375 0.9298890625
vt 0.2811765625 0.92996328125
vt 0.109442578125 0.6875
vt 0.113629296875 0.6875
vt 0.113629296875 0.765625
vt 0.109442578125 0.765625
vt 0.328834375 0.765625
vt 0.32868671875 0.765625
vt 0.32868671875 0.6875
vt 0.328834375 0.6875
vt 0.2497984375 0.7810484375
vt 0.24972421875 0.78117578125
vt 0.2421875 0.77915625
vt 0.24428125 0.77553046875
vt 0.27553125 0.93540703125
vt 0.2734375 0.93178125
vt 0.28097421875 0.92976171875
vt 0.2810484375 0.9298890625
vt 0.113629296875 0.6875
vt 0.11781601562499999 0.6875
vt 0.11781601562499999 0.765625
vt 0.113629296875 0.765625
vt 0.32868671875 0.765625
vt 0.32853984375 0.765625
vt 0.32853984375 0.6875
vt 0.32868671875 0.6875
vt 0.24972421875 0.78117578125
vt 0.24972421875 0.7813234375
vt 0.2421875 0.78334296875
vt 0.2421875 0.77915625
vt 0.2734375 0.93178125
vt 0.2734375 0.92759453125
vt 0.28097421875 0.9296140625
vt 0.28097421875 0.92976171875
vt 0.11781601562499999 0.6875
vt 0.122002734375 0.6875
vt 0.122002734375 0.765625
vt 0.11781601562499999 0.765625
vt 0.32853984375 0.765625
vt 0.3283921875 0.765625
vt 0.3283921875 0.6875
vt 0.32853984375 0.6875
vt 0.24972421875 0.7813234375
vt 0.2497984375 0.7814515625
vt 0.24428046875 0.78696875
vt 0.2421875 0.78334296875
vt 0.2734375 0.92759453125
vt 0.27553046875 0.92396875
vt 0.2810484375 0.9294859375
vt 0.28097421875 0.9296140625
vt 0.132880078125 0.6875
vt 0.137066796875 0.6875
vt 0.137066796875 0.765625
vt 0.132880078125 0.765625
vt 0.328834765625 0.8515625
vt 0.328687109375 0.8515625
vt 0.328687109375 0.7734375
vt 0.328834765625 0.7734375
vt 0.2497984375 0.7814515625
vt 0.24992578125 0.78152578125
vt 0.24790625 0.7890625
vt 0.24428046875 0.78696875
vt 0.27553046875 0.92396875
vt 0.27915625 0.921875
vt 0.28117578125 0.92941171875
vt 0.2810484375 0.9294859375
vt 0.137066796875 0.6875
vt 0.141253515625 0.6875
vt 0.141253515625 0.765625
vt 0.137066796875 0.765625
vt 0.328687109375 0.8515625
vt 0.328539453125 0.8515625
vt 0.328539453125 0.7734375
vt 0.328687109375 0.7734375
vt 0.24992578125 0.78152578125
vt 0.2500734375 0.78152578125
vt 0.25209296875 0.7890625
vt 0.24790625 0.7890625
vt 0.27915625 0.921875
vt 0.28334296875 0.921875
vt 0.2813234375 0.92941171875
vt 0.28117578125 0.92941171875
vn 0.5000024352623959 0 0.8660239977804736
vn -0.500348091332267 0 -0.865824339863553
vn 0 -1 0
vn 0 1 0
vn 0.8660239977804736 0 0.5000024352623959
vn -0.865824339863553 0 -0.500348091332267
vn 0 -1 0
vn 0 1 0
vn 1 0 0
vn -1 0 0
vn 0 -1 0
vn 0 1 0
vn 0.8660239977804736 0 -0.5000024352623959
vn -0.865824339863553 0 0.500348091332267
vn 0 -1 0
vn 0 1 0
vn 0.5000024352623959 0 -0.8660239977804736
vn -0.500348091332267 0 0.865824339863553
vn 0 -1 0
vn 0 1 0
vn 0 0 -1
vn 0 0 1
vn 0 -1 0
vn 0 1 0
vn -0.5000024352623959 0 -0.8660239977804736
vn 0.500348091332267 0 0.865824339863553
vn 0 -1 0
vn 0 1 0
vn -0.8660239977804736 0 -0.5000024352623959
vn 0.865824339863553 0 0.500348091332267
vn 0 -1 0
vn 0 1 0
vn -1 0 0
vn 1 0 0
vn 0 -1 0
vn 0 1 0
vn -0.8660239977804736 0 0.5000024352623959
vn 0.865824339863553 0 -0.500348091332267
vn 0 -1 0
vn 0 1 0
vn -0.5000024352623959 0 0.8660239977804736
vn 0.500348091332267 0 -0.865824339863553
vn 0 -1 0
vn 0 1 0
vn 0 0 1
vn 0 0 -1
vn 0 -1 0
vn 0 1 0
usemtl m_d0200561-35ef-d016-ce15-c77ca7b1f513
f 73/289/73 77/290/73 78/291/73 74/292/73
f 76/293/74 80/294/74 79/295/74 75/296/74
f 75/297/75 79/298/75 77/299/75 73/300/75
f 74/301/76 78/302/76 80/303/76 76/304/76
f 77/305/77 81/306/77 82/307/77 78/308/77
f 80/309/78 84/310/78 83/311/78 79/312/78
f 79/313/79 83/314/79 81/315/79 77/316/79
f 78/317/80 82/318/80 84/319/80 80/320/80
f 81/321/81 85/322/81 86/323/81 82/324/81
f 84/325/82 88/326/82 87/327/82 83/328/82
f 83/329/83 87/330/83 85/331/83 81/332/83
f 82/333/84 86/334/84 88/335/84 84/336/84
f 85/337/85 89/338/85 90/339/85 86/340/85
f 88/341/86 92/342/86 91/343/86 87/344/86
f 87/345/87 91/346/87 89/347/87 85/348/87
f 86/349/88 90/350/88 92/351/88 88/352/88
f 89/353/89 93/354/89 94/355/89 90/356/89
f 92/357/90 96/358/90 95/359/90 91/360/90
f 91/361/91 95/362/91 93/363/91 89/364/91
f 90/365/92 94/366/92 96/367/92 92/368/92
f 93/369/93 97/370/93 98/371/93 94/372/93
f 96/373/94 100/374/94 99/375/94 95/376/94
f 95/377/95 99/378/95 97/379/95 93/380/95
f 94/381/96 98/382/96 100/383/96 96/384/96
f 97/385/97 101/386/97 102/387/97 98/388/97
f 100/389/98 104/390/98 103/391/98 99/392/98
f 99/393/99 103/394/99 101/395/99 97/396/99
f 98/397/100 102/398/100 104/399/100 100/400/100
f 101/401/101 105/402/101 106/403/101 102/404/101
f 104/405/102 108/406/102 107/407/102 103/408/102
f 103/409/103 107/410/103 105/411/103 101/412/103
f 102/413/104 106/414/104 108/415/104 104/416/104
f 105/417/105 109/418/105 110/419/105 106/420/105
f 108/421/106 112/422/106 111/423/106 107/424/106
f 107/425/107 111/426/107 109/427/107 105/428/107
f 106/429/108 110/430/108 112/431/108 108/432/108
f 109/433/109 113/434/109 114/435/109 110/436/109
f 112/437/110 116/438/110 115/439/110 111/440/110
f 111/441/111 115/442/111 113/443/111 109/444/111
f 110/445/112 114/446/112 116/447/112 112/448/112
f 113/449/113 117/450/113 118/451/113 114/452/113
f 116/453/114 120/454/114 119/455/114 115/456/114
f 115/457/115 119/458/115 117/459/115 113/460/115
f 114/461/116 118/462/116 120/463/116 116/464/116
f 117/465/117 73/466/117 74/467/117 118/468/117
f 120/469/118 76/470/118 75/471/118 119/472/118
f 119/473/119 75/474/119 73/475/119 117/476/119
f 118/477/120 74/478/120 76/479/120 120/480/120
o sphere
v 0 0.5669444986650125 0.2719175723866057
v 0 0.9330555013349875 0.3530824276133943
v 0.09375 0.8063822861562246 0.4913221594428319
v 0.09375 0.6233267848212372 0.4507397318294376
v 0.1875 0.8415277506674937 0.33279121380669713
v 0.1875 0.6584722493325063 0.29220878619330287
v 0.09375 0.8766732151787628 0.1742602681705624
v 0.09375 0.6936177138437754 0.13367784055716808
v -0.09375 0.8766732151787628 0.1742602681705624
v -0.09375 0.6936177138437754 0.13367784055716808
v -0.1875 0.8415277506674937 0.33279121380669713
v -0.1875 0.6584722493325063 0.29220878619330287
v -0.09375 0.8063822861562246 0.4913221594428319
v -0.09375 0.6233267848212372 0.4507397318294376
vt 0.20947265625 0.9765625
vt 0.22353515625 0.9953125
vt 0.19775390625 1
vt 0.234375 0.765625
vt 0.234375 0.7421875
vt 0.2578125 0.7421875
vt 0.2578125 0.765625
vt 0.25478515625 0.8640625
vt 0.24072265625 0.8828125
vt 0.22900390625 0.859375
vt 0.10947265625 0.9953125
vt 0.12353515625 0.9765625
vt 0.13525390625 1
vt 0.2421875 0.9375
vt 0.2421875 0.9140625
vt 0.265625 0.9140625
vt 0.265625 0.9375
vt 0.13134765625 0.796875
vt 0.11728515625000001 0.778125
vt 0.14306640625 0.7734375
vt 0.12353515625 0.9765625
vt 0.14697265625 0.9765625
vt 0.13525390625 1
vt 0.0546875 0.890625
vt 0.0546875 0.8671875
vt 0.078125 0.8671875
vt 0.078125 0.890625
vt 0.15478515625 0.796875
vt 0.13134765625 0.796875
vt 0.14306640625 0.7734375
vt 0.14697265625 0.9765625
vt 0.16103515625 0.9953125
vt 0.13525390625 1
vt 0 0.75
vt 0 0.7265625
vt 0.0234375 0.7265625
vt 0.0234375 0.75
vt 0.16884765624999998 0.778125
vt 0.15478515625 0.796875
vt 0.14306640625 0.7734375
vt 0.17197265625 0.9953125
vt 0.18603515625 0.9765625
vt 0.19775390625 1
vt 0.03125 0.75
vt 0.03125 0.7265625
vt 0.0546875 0.7265625
vt 0.0546875 0.75
vt 0.21728515625 0.8828125
vt 0.20322265625 0.8640625
vt 0.22900390625 0.859375
vt 0.18603515625 0.9765625
vt 0.20947265625 0.9765625
vt 0.19775390625 1
vt 0.203125 0.765625
vt 0.203125 0.7421875
vt 0.2265625 0.7421875
vt 0.2265625 0.765625
vt 0.24072265625 0.8828125
vt 0.21728515625 0.8828125
vt 0.22900390625 0.859375
vn 0.4330127413572081 0.7913873913277703 0.43151588924365525
vn 0.8660257195044778 -0.10821968861044517 0.48814746967879497
vn 0.4330127413572081 -0.8996070503486244 0.05663144696512043
vn 0.4330127413572081 0.8996070503486244 -0.05663144696512043
vn 0.8660257195044778 0.10821968861044517 -0.48814746967879497
vn 0.4330127413572081 -0.7913873913277703 -0.43151588924365525
vn 0 0.9537171406258342 -0.300705197288778
vn 0 0.21643961393810288 -0.9762960071199334
vn 0 -0.7372777634049439 -0.675589742068812
vn -0.4330127413572081 0.8996070503486244 -0.05663144696512043
vn -0.8660257195044778 0.10821968861044517 -0.48814746967879497
vn -0.4330127413572081 -0.7913873913277703 -0.43151588924365525
vn -0.4330127413572081 0.7913873913277703 0.43151588924365525
vn -0.8660257195044778 -0.10821968861044517 0.48814746967879497
vn -0.4330127413572081 -0.8996070503486244 0.05663144696512043
vn 0 0.7372777634049439 0.675589742068812
vn 0 -0.21643961393810288 0.9762960071199334
vn 0 -0.9537171406258342 0.300705197288778
usemtl m_6588d080-3336-f676-0bb0-973363510fa9
f 123/481/121 125/482/121 122/483/121
f 123/484/122 124/485/122 126/486/122 125/487/122
f 126/488/123 124/489/123 121/490/123
f 125/491/124 127/492/124 122/493/124
f 125/494/125 126/495/125 128/496/125 127/497/125
f 128/498/126 126/499/126 121/500/126
f 127/501/127 129/502/127 122/503/127
f 127/504/128 128/505/128 130/506/128 129/507/128
f 130/508/129 128/509/129 121/510/129
f 129/511/130 131/512/130 122/513/130
f 129/514/131 130/515/131 132/516/131 131/517/131
f 132/518/132 130/519/132 121/520/132
f 131/521/133 133/522/133 122/523/133
f 131/524/134 132/525/134 134/526/134 133/527/134
f 134/528/135 132/529/135 121/530/135
f 133/531/136 123/532/136 122/533/136
f 133/534/137 134/535/137 124/536/137 123/537/137
f 124/538/138 134/539/138 121/540/138
o sphere
v -0.10892971111621799 0.47125656808438804 -0.028938923780961225
v -0.26607028888378204 0.6537434319156119 -0.09606107621903878
v -0.2514291599133547 0.6383678998360971 0.06064504126124061
v -0.1728588710295727 0.5471244679204852 0.09420611748027938
v -0.15026139199036986 0.6927796906012985 -0.02826933698662787
v -0.07169110310658787 0.6015362586856866 0.005291739232410914
v -0.12561737651890617 0.6625335067230074 -0.16819491635738787
v -0.04704708763512416 0.5712900748073955 -0.1346338401383491
v -0.2021411289704273 0.5778755320795148 -0.21920611748027938
v -0.12357084008664529 0.48663210016390285 -0.1856450412612406
v -0.3033088968934121 0.5234637413143134 -0.1302917392324109
v -0.22473860800963014 0.4322203093987015 -0.09673066301337213
v -0.32795291236487584 0.5537099251926045 0.009633840138349087
v -0.24938262348109383 0.46246649327699263 0.043194916357387855
vt 0.181640625 0.7474669105928076
vt 0.1910945280213595 0.7629694869092746
vt 0.17382800585913757 0.765625
vt 0.265625 0.84375
vt 0.265625 0.828125
vt 0.2841796875 0.828125
vt 0.2841796875 0.84375
vt 0.2692195280213595 0.9841008255907254
vt 0.259765625 0.9996034019071924
vt 0.2519530058591376 0.9814453125
vt 0.2268742219786405 0.8176569869092746
vt 0.236328125 0.8021544105928076
vt 0.24414074414086243 0.8203125
vt 0.21875 0.734375
vt 0.21875 0.71875
vt 0.2373046875 0.71875
vt 0.2373046875 0.734375
vt 0.228515625 0.8511659019071924
vt 0.2190617219786405 0.8356633255907254
vt 0.23632824414086243 0.8330078125
vt 0.236328125 0.8021544105928076
vt 0.251953125 0.8021544105928076
vt 0.244140625 0.8203122230928075
vt 0.2734375 0.8203125
vt 0.2734375 0.8046875
vt 0.2890625 0.8046875
vt 0.2890625 0.8203125
vt 0.244140625 0.8511659019071924
vt 0.228515625 0.8511659019071924
vt 0.236328125 0.8330080894071925
vt 0.251953125 0.8021544105928076
vt 0.2614070280213595 0.8176569869092746
vt 0.24414050585913757 0.8203125
vt 0.265625 0.765625
vt 0.265625 0.75
vt 0.2841796875 0.75
vt 0.2841796875 0.765625
vt 0.2535945280213595 0.8356633255907254
vt 0.244140625 0.8511659019071924
vt 0.23632800585913757 0.8330078125
vt 0.1565617219786405 0.7629694869092746
vt 0.166015625 0.7474669105928076
vt 0.17382824414086243 0.765625
vt 0.25 0.734375
vt 0.25 0.71875
vt 0.2685546875 0.71875
vt 0.2685546875 0.734375
vt 0.244140625 0.9996034019071924
vt 0.2346867219786405 0.9841008255907254
vt 0.2519532441408624 0.9814453125
vt 0.166015625 0.7474669105928076
vt 0.181640625 0.7474669105928076
vt 0.173828125 0.7656247230928075
vt 0 0.71875
vt 0 0.703125
vt 0.015625 0.703125
vt 0.015625 0.71875
vt 0.259765625 0.9996034019071924
vt 0.244140625 0.9996034019071924
vt 0.251953125 0.9814455894071925
vn -0.3820942545889615 0.9155577230378675 0.12553101766424704
vn 0.3462264493256584 0.571726073290573 0.7438121691039276
vn 0.7176074765937781 -0.36152247435166446 0.5952654954517019
vn -0.18207868929344556 0.9539762033406263 -0.2382787325066702
vn 0.7590309198519296 0.651016504494628 -0.007040851108332026
vn 0.9176230418892941 -0.3231039940489059 0.2314557452807848
vn -0.36100584396185154 0.6985744518393117 -0.6177932630441972
vn 0.47972158695359013 0.0921437004762839 -0.8725690445307273
vn 0.7738103144881228 -0.6192840206352567 -0.13305975716806226
vn -0.7176074765937781 0.36152247435166446 -0.5952654954517019
vn -0.3462264493256584 -0.571726073290573 -0.7438121691039276
vn 0.3820942545889615 -0.9155577230378675 -0.12553101766424704
vn -0.9176230418892941 0.3231039940489059 -0.2314557452807848
vn -0.7590309198519296 -0.651016504494628 0.007040851108332026
vn 0.18207868929344556 -0.9539762033406263 0.2382787325066702
vn -0.7738103144881228 0.6192840206352567 0.13305975716806226
vn -0.47972158695359013 -0.0921437004762839 0.8725690445307273
vn 0.36100584396185154 -0.6985744518393117 0.6177932630441972
usemtl m_6588d080-3336-f676-0bb0-973363510fa9
f 137/541/139 139/542/139 136/543/139
f 137/544/140 138/545/140 140/546/140 139/547/140
f 140/548/141 138/549/141 135/550/141
f 139/551/142 141/552/142 136/553/142
f 139/554/143 140/555/143 142/556/143 141/557/143
f 142/558/144 140/559/144 135/560/144
f 141/561/145 143/562/145 136/563/145
f 141/564/146 142/565/146 144/566/146 143/567/146
f 144/568/147 142/569/147 135/570/147
f 143/571/148 145/572/148 136/573/148
f 143/574/149 144/575/149 146/576/149 145/577/149
f 146/578/150 144/579/150 135/580/150
f 145/581/151 147/582/151 136/583/151
f 145/584/152 146/585/152 148/586/152 147/587/152
f 148/588/153 146/589/153 135/590/153
f 147/591/154 137/592/154 136/593/154
f 147/594/155 148/595/155 138/596/155 137/597/155
f 138/598/156 148/599/156 135/600/156
o sphere
v 0 0.5142725876541338 -0.17824685643154567
v 0 0.8607274123458662 -0.3217531435684543
v 0.09375 0.8362538419203764 -0.1358570132950444
v 0.09375 0.6630264295745102 -0.0641038697265901
v 0.1875 0.7741137061729331 -0.28587657178422715
v 0.1875 0.6008862938270669 -0.21412342821577285
v 0.09375 0.7119735704254898 -0.4358961302734099
v 0.09375 0.5387461580796236 -0.3641429867049556
v -0.09375 0.7119735704254898 -0.4358961302734099
v -0.09375 0.5387461580796236 -0.3641429867049556
v -0.1875 0.7741137061729331 -0.28587657178422715
v -0.1875 0.6008862938270669 -0.21412342821577285
v -0.09375 0.8362538419203764 -0.1358570132950444
v -0.09375 0.6630264295745102 -0.0641038697265901
vt 0.09228515625 0.7734375
vt 0.10634765625 0.7921875
vt 0.08056640625 0.796875
vt 0.265625 0.875
vt 0.265625 0.8515625
vt 0.2890625 0.8515625
vt 0.2890625 0.875
vt 0.05166015624999999 0.7625
vt 0.03759765625 0.78125
vt 0.025878906249999997 0.7578125
vt 0.20322265625 0.9640625
vt 0.21728515625 0.9453125
vt 0.22900390625 0.96875
vt 0.15625 0.734375
vt 0.15625 0.7109375
vt 0.1796875 0.7109375
vt 0.1796875 0.734375
vt 0.19384765625 0.796875
vt 0.17978515625 0.778125
vt 0.20556640625 0.7734375
vt 0.21728515625 0.9453125
vt 0.24072265625 0.9453125
vt 0.22900390625 0.96875
vt 0.2578125 0.90625
vt 0.2578125 0.8828125
vt 0.28125 0.8828125
vt 0.28125 0.90625
vt 0.21728515625 0.796875
vt 0.19384765625 0.796875
vt 0.20556640625 0.7734375
vt 0.24072265625 0.9453125
vt 0.25478515625 0.9640625
vt 0.22900390625 0.96875
vt 0.1875 0.734375
vt 0.1875 0.7109375
vt 0.2109375 0.7109375
vt 0.2109375 0.734375
vt 0.23134765624999998 0.778125
vt 0.21728515625 0.796875
vt 0.20556640625 0.7734375
vt 0.054785156249999994 0.7921875
vt 0.06884765625 0.7734375
vt 0.08056640625 0.796875
vt 0.265625 0.796875
vt 0.265625 0.7734375
vt 0.2890625 0.7734375
vt 0.2890625 0.796875
vt 0.01416015625 0.78125
vt 0.00009765625000000486 0.7625
vt 0.025878906250000003 0.7578125
vt 0.06884765625 0.7734375
vt 0.09228515625 0.7734375
vt 0.08056640625 0.796875
vt 0.265625 0.96875
vt 0.265625 0.9453125
vt 0.2890625 0.9453125
vt 0.2890625 0.96875
vt 0.03759765625 0.78125
vt 0.01416015625 0.78125
vt 0.02587890625 0.7578125
vn 0.4330127413572081 0.8957739454119037 -0.10044403687381082
vn 0.8660257195044778 0.1913415069145792 0.4619392610380825
vn 0.4330127413572081 -0.7044324908142087 0.5623831716077621
vn 0.4330127413572081 0.7044324908142087 -0.5623831716077621
vn 0.8660257195044778 -0.1913415069145792 -0.4619392610380825
vn 0.4330127413572081 -0.8957739454119037 0.10044403687381082
vn 0 0.6087619299639685 -0.7933529558945025
vn 0 -0.3826834323650897 -0.9238795325112867
vn 0 -0.9914449437931269 -0.1305255661816625
vn -0.4330127413572081 0.7044324908142087 -0.5623831716077621
vn -0.8660257195044778 -0.1913415069145792 -0.4619392610380825
vn -0.4330127413572081 -0.8957739454119037 0.10044403687381082
vn -0.4330127413572081 0.8957739454119037 -0.10044403687381082
vn -0.8660257195044778 0.1913415069145792 0.4619392610380825
vn -0.4330127413572081 -0.7044324908142087 0.5623831716077621
vn 0 0.9914449437931269 0.1305255661816625
vn 0 0.3826834323650897 0.9238795325112867
vn 0 -0.6087619299639685 0.7933529558945025
usemtl m_6588d080-3336-f676-0bb0-973363510fa9
f 151/601/157 153/602/157 150/603/157
f 151/604/158 152/605/158 154/606/158 153/607/158
f 154/608/159 152/609/159 149/610/159
f 153/611/160 155/612/160 150/613/160
f 153/614/161 154/615/161 156/616/161 155/617/161
f 156/618/162 154/619/162 149/620/162
f 155/621/163 157/622/163 150/623/163
f 155/624/164 156/625/164 158/626/164 157/627/164
f 158/628/165 156/629/165 149/630/165
f 157/631/166 159/632/166 150/633/166
f 157/634/167 158/635/167 160/636/167 159/637/167
f 160/638/168 158/639/168 149/640/168
f 159/641/169 161/642/169 150/643/169
f 159/644/170 160/645/170 162/646/170 161/647/170
f 162/648/171 160/649/171 149/650/171
f 161/651/172 151/652/172 150/653/172
f 161/654/173 162/655/173 152/656/173 151/657/173
f 152/658/174 162/659/174 149/660/174
o sphere
v -0.10636501698525484 0.5510376346442143 0.01892326888337189
v 0.10636501698525484 1.1989623653557857 0.1060767311166281
v 0.07471971684960538 0.9818674977859565 0.4414504057009088
v -0.03164530013564948 0.6579051324301708 0.3978736745842807
v 0.3500208977679068 0.9220636142710024 0.2140765993235724
v 0.24365588078265196 0.5981012489152168 0.1704998682069443
v 0.32848368941092887 0.9771772991629387 -0.14308544081902236
v 0.222118672425674 0.6532149338071531 -0.1866621719356505
v 0.03164530013564948 1.0920948675698292 -0.2728736745842807
v -0.07471971684960538 0.7681325022140435 -0.3164504057009088
v -0.24365588078265196 1.1518987510847833 -0.04549986820694428
v -0.3500208977679068 0.8279363857289976 -0.0890765993235724
v -0.222118672425674 1.0967850661928469 0.3116621719356505
v -0.32848368941092887 0.7728227008370613 0.26808544081902236
vt 0.16259765625 0.9234962689676203
vt 0.18846230523600116 0.9606293439156579
vt 0.14111299353004902 0.96875
vt 0 0.890625
vt 0 0.84765625
vt 0.044921875 0.84765625
vt 0.044921875 0.890625
vt 0.18846230523600116 0.8684722185843421
vt 0.16259765625 0.9056052935323797
vt 0.14111299353004902 0.8603515625
vt 0.000014257263998854186 0.9918793439156579
vt 0.025878906249999997 0.9547462689676203
vt 0.04736356896995099 1
vt 0.0546875 0.8515625
vt 0.0546875 0.80859375
vt 0.099609375 0.80859375
vt 0.099609375 0.8515625
vt 0.025878906249999997 0.9446677935323797
vt 0.000014257263998854186 0.9075347185843421
vt 0.04736356896995099 0.8994140625
vt 0.02587890625 0.9547462689676203
vt 0.06884765625 0.9547462689676203
vt 0.04736328125 0.9999993939676203
vt 0.1640625 0.8515625
vt 0.1640625 0.80859375
vt 0.20703125 0.80859375
vt 0.20703125 0.8515625
vt 0.06884765625 0.9446677935323797
vt 0.02587890625 0.9446677935323797
vt 0.04736328125 0.8994146685323796
vt 0.06884765625 0.9547462689676203
vt 0.09471230523600115 0.9918793439156579
vt 0.04736299353004901 1
vt 0.109375 0.8515625
vt 0.109375 0.80859375
vt 0.154296875 0.80859375
vt 0.154296875 0.8515625
vt 0.09471230523600115 0.9075347185843421
vt 0.06884765625 0.9446677935323797
vt 0.04736299353004901 0.8994140625
vt 0.09376425726399885 0.9606293439156579
vt 0.11962890625 0.9234962689676203
vt 0.14111356896995098 0.96875
vt 0 0.8359375
vt 0 0.79296875
vt 0.044921875 0.79296875
vt 0.044921875 0.8359375
vt 0.11962890625 0.9056052935323797
vt 0.09376425726399885 0.8684722185843421
vt 0.14111356896995098 0.8603515625
vt 0.11962890625 0.9234962689676203
vt 0.16259765625 0.9234962689676203
vt 0.14111328125 0.9687493939676203
vt 0.1875 0.9375
vt 0.1875 0.89453125
vt 0.23046875 0.89453125
vt 0.23046875 0.9375
vt 0.16259765625 0.9056052935323797
vt 0.11962890625 0.9056052935323797
vt 0.14111328125 0.8603521685323796
vn 0.5510703682795259 0.6758232594752718 0.4894735653296177
vn 0.5709573854357682 -0.2907346645401137 0.7677766725103721
vn 0.012988519671203107 -0.9630451708689961 0.2690265734507596
vn 0.7378379915552342 0.6723713224620287 0.05926131072125475
vn 0.9490610059884708 -0.29772297364709605 -0.10317091583814861
vn 0.19975614294691135 -0.9664971078822392 -0.16118568115760337
vn 0.46138313240834905 0.8259618242913284 -0.32390225368527575
vn 0.3982110481770761 -0.007359945113482315 -0.9172642979630469
vn -0.08327951185564643 -0.8329501333983106 -0.547045334663245
vn -0.012988519671203107 0.9630451708689961 -0.2690265734507596
vn -0.5709573854357682 0.2907346645401137 -0.7677766725103721
vn -0.5510703682795259 -0.6758232594752718 -0.4894735653296177
vn -0.19975614294691135 0.9664971078822392 0.16118568115760337
vn -0.9490610059884708 0.29772297364709605 0.10317091583814861
vn -0.7378379915552342 -0.6723713224620287 -0.05926131072125475
vn 0.08327951185564643 0.8329501333983106 0.547045334663245
vn -0.3982110481770761 0.007359945113482315 0.9172642979630469
vn -0.46138313240834905 -0.8259618242913284 0.32390225368527575
usemtl m_6588d080-3336-f676-0bb0-973363510fa9
f 165/661/175 167/662/175 164/663/175
f 165/664/176 166/665/176 168/666/176 167/667/176
f 168/668/177 166/669/177 163/670/177
f 167/671/178 169/672/178 164/673/178
f 167/674/179 168/675/179 170/676/179 169/677/179
f 170/678/180 168/679/180 163/680/180
f 169/681/181 171/682/181 164/683/181
f 169/684/182 170/685/182 172/686/182 171/687/182
f 172/688/183 170/689/183 163/690/183
f 171/691/184 173/692/184 164/693/184
f 171/694/185 172/695/185 174/696/185 173/697/185
f 174/698/186 172/699/186 163/700/186
f 173/701/187 175/702/187 164/703/187
f 173/704/188 174/705/188 176/706/188 175/707/188
f 176/708/189 174/709/189 163/710/189
f 175/711/190 165/712/190 164/713/190
f 175/714/191 176/715/191 166/716/191 165/717/191
f 166/718/192 176/719/192 163/720/192