# Made in Blockbench 5.1.6
mtllib ParkFont.mtl

o circle
v -3.2381504884900407e-18 2.5 -3.2381504884900407e-18
v 0.23445554337723232 2.5 0.875
v 0.6405444566227676 2.5 0.6405444566227676
v 0.875 2.5 0.23445554337723232
v 0.875 2.5 -0.2344555433772324
v 0.6405444566227676 2.5 -0.6405444566227676
v 0.23445554337723257 2.5 -0.8749999999999998
v -0.23445554337723196 2.5 -0.875
v -0.6405444566227676 2.5 -0.640544456622768
v -0.8749999999999998 2.5 -0.2344555433772322
v -0.875 2.5 0.23445554337723193
v -0.640544456622768 2.5 0.6405444566227676
v -0.23445554337723232 2.5 0.875
vt 0.62275625 0.78349375
vt 0.65625 0.84150625
vt 0.53125 0.875
vt 0.65625 0.84150625
vt 0.65625 0.90849375
vt 0.53125 0.875
vt 0.65625 0.90849375
vt 0.62275625 0.96650625
vt 0.53125 0.875
vt 0.62275625 0.96650625
vt 0.56474375 1
vt 0.53125 0.875
vt 0.56474375 1
vt 0.49775625 1
vt 0.53125 0.875
vt 0.49775625 1
vt 0.43974375 0.96650625
vt 0.53125 0.875
vt 0.43974375 0.96650625
vt 0.40625 0.90849375
vt 0.53125 0.875
vt 0.40625 0.90849375
vt 0.40625 0.84150625
vt 0.53125 0.875
vt 0.40625 0.84150625
vt 0.43974375 0.78349375
vt 0.53125 0.875
vt 0.43974375 0.78349375
vt 0.49775625 0.75
vt 0.53125 0.875
vt 0.49775625 0.75
vt 0.56474375 0.75
vt 0.53125 0.875
vt 0.56474375 0.75
vt 0.62275625 0.78349375
vt 0.53125 0.875
vn 0 1 0
vn 0 1 0
vn 0 1 0
vn 0 1 0
vn 0 1 0
vn 0 1 0
vn 0 1 0
vn 0 1 0
vn 0 1 0
vn 0 1 0
vn 0 1 0
vn 0 1 0
usemtl m_f409b067-f615-16a7-8dce-66d4317343d3
f 3/1/1 4/2/1 1/3/1
f 4/4/2 5/5/2 1/6/2
f 5/7/3 6/8/3 1/9/3
f 6/10/4 7/11/4 1/12/4
f 7/13/5 8/14/5 1/15/5
f 8/16/6 9/17/6 1/18/6
f 9/19/7 10/20/7 1/21/7
f 10/22/8 11/23/8 1/24/8
f 11/25/9 12/26/9 1/27/9
f 12/28/10 13/29/10 1/30/10
f 13/31/11 2/32/11 1/33/11
f 2/34/12 3/35/12 1/36/12
o circle
v 0 1 0
v 0.5358983848622453 1 1.9999999999999998
v 1.4641016151377544 1 1.4641016151377546
v 1.9999999999999998 1 0.5358983848622453
v 1.9999999999999998 1 -0.5358983848622455
v 1.4641016151377546 1 -1.4641016151377544
v 0.535898384862246 1 -1.9999999999999996
v -0.5358983848622445 1 -2
v -1.4641016151377544 1 -1.4641016151377548
v -1.9999999999999998 1 -0.5358983848622451
v -2 1 0.5358983848622444
v -1.4641016151377548 1 1.4641016151377542
v -0.5358983848622452 1 1.9999999999999998
vt 0.62275625 0.78349375
vt 0.65625 0.84150625
vt 0.53125 0.875
vt 0.65625 0.84150625
vt 0.65625 0.90849375
vt 0.53125 0.875
vt 0.65625 0.90849375
vt 0.62275625 0.96650625
vt 0.53125 0.875
vt 0.62275625 0.96650625
vt 0.56474375 1
vt 0.53125 0.875
vt 0.56474375 1
vt 0.49775625 1
vt 0.53125 0.875
vt 0.49775625 1
vt 0.43974375 0.96650625
vt 0.53125 0.875
vt 0.43974375 0.96650625
vt 0.40625 0.90849375
vt 0.53125 0.875
vt 0.40625 0.90849375
vt 0.40625 0.84150625
vt 0.53125 0.875
vt 0.40625 0.84150625
vt 0.43974375 0.78349375
vt 0.53125 0.875
vt 0.43974375 0.78349375
vt 0.49775625 0.75
vt 0.53125 0.875
vt 0.49775625 0.75
vt 0.56474375 0.75
vt 0.53125 0.875
vt 0.56474375 0.75
vt 0.62275625 0.78349375
vt 0.53125 0.875
vn 0 1 0
vn 0 1 0
vn 0 1 0
vn 0 1 0
vn 0 1 0
vn 0 1 0
vn 0 1 0
vn 0 1 0
vn 0 1 0
vn 0 1 0
vn 0 1 0
vn 0 1 0
usemtl m_f409b067-f615-16a7-8dce-66d4317343d3
f 16/37/13 17/38/13 14/39/13
f 17/40/14 18/41/14 14/42/14
f 18/43/15 19/44/15 14/45/15
f 19/46/16 20/47/16 14/48/16
f 20/49/17 21/50/17 14/51/17
f 21/52/18 22/53/18 14/54/18
f 22/55/19 23/56/19 14/57/19
f 23/58/20 24/59/20 14/60/20
f 24/61/21 25/62/21 14/63/21
f 25/64/22 26/65/22 14/66/22
f 26/67/23 15/68/23 14/69/23
f 15/70/24 16/71/24 14/72/24
o tube
v 0.1339745962155613 0.75 0.5
v 0.1339745962155613 2.25 0.5
v 0.00472611202646815 0.75 0.01763809020504147
v 0.00472611202646815 2.25 0.01763809020504147
v 0.3660254037844385 0.75 0.36602540378443865
v 0.3660254037844385 2.25 0.36602540378443865
v 0.012911978178573308 0.75 0.012911978178573308
v 0.012911978178573308 2.25 0.012911978178573308
v 0.5 0.75 0.1339745962155613
v 0.5 2.25 0.1339745962155613
v 0.01763809020504147 0.75 0.00472611202646815
v 0.01763809020504147 2.25 0.00472611202646815
v 0.5 0.75 -0.13397459621556135
v 0.5 2.25 -0.13397459621556135
v 0.01763809020504147 0.75 -0.00472611202646817
v 0.01763809020504147 2.25 -0.00472611202646817
v 0.36602540378443865 0.75 -0.36602540378443865
v 0.36602540378443865 2.25 -0.36602540378443865
v 0.012911978178573308 0.75 -0.012911978178573327
v 0.012911978178573308 2.25 -0.012911978178573327
v 0.13397459621556146 0.75 -0.49999999999999983
v 0.13397459621556146 2.25 -0.49999999999999983
v 0.004726112026468153 0.75 -0.017638090205041482
v 0.004726112026468153 2.25 -0.017638090205041482
v -0.13397459621556113 0.75 -0.5
v -0.13397459621556113 2.25 -0.5
v -0.00472611202646816 0.75 -0.017638090205041486
v -0.00472611202646816 2.25 -0.017638090205041486
v -0.36602540378443865 0.75 -0.36602540378443865
v -0.36602540378443865 2.25 -0.36602540378443865
v -0.012911978178573327 0.75 -0.01291197817857333
v -0.012911978178573327 2.25 -0.01291197817857333
v -0.4999999999999998 0.75 -0.13397459621556124
v -0.4999999999999998 2.25 -0.13397459621556124
v -0.017638090205041486 0.75 -0.0047261120264681655
v -0.017638090205041486 2.25 -0.0047261120264681655
v -0.5 0.75 0.13397459621556107
v -0.5 2.25 0.13397459621556107
v -0.017638090205041486 0.75 0.004726112026468141
v -0.017638090205041486 2.25 0.004726112026468141
v -0.36602540378443865 0.75 0.3660254037844385
v -0.36602540378443865 2.25 0.3660254037844385
v -0.01291197817857333 0.75 0.012911978178573306
v -0.01291197817857333 2.25 0.012911978178573306
v -0.1339745962155613 0.75 0.5
v -0.1339745962155613 2.25 0.5
v -0.004726112026468166 0.75 0.01763809020504147
v -0.004726112026468166 2.25 0.01763809020504147
vt 0.30134218749999997 0.90625
vt 0.3180890625 0.90625
vt 0.3180890625 1
vt 0.30134218749999997 1
vt 0.3473609375 0.890625
vt 0.3467703125 0.890625
vt 0.3467703125 0.796875
vt 0.3473609375 0.796875
vt 0.4690453125 0.407353125
vt 0.46955625 0.40705625
vt 0.49162656250000003 0.42912656250000003
vt 0.47712343749999997 0.4375
vt 0.5552484375 0.375
vt 0.5697515625 0.38337343749999997
vt 0.54768125 0.40544375
vt 0.5471703125 0.405146875
vt 0.0803484375 0.828125
vt 0.0970953125 0.828125
vt 0.0970953125 0.921875
vt 0.0803484375 0.921875
vt 0.1610421875 0.921875
vt 0.1604515625 0.921875
vt 0.1604515625 0.828125
vt 0.1610421875 0.828125
vt 0.46955625 0.40705625
vt 0.469853125 0.40654531250000003
vt 0.5 0.41462343749999997
vt 0.49162656250000003 0.42912656250000003
vt 0.5697515625 0.38337343749999997
vt 0.578125 0.39787656250000003
vt 0.547978125 0.40595468749999997
vt 0.54768125 0.40544375
vt 0.0970953125 0.828125
vt 0.1138421875 0.828125
vt 0.1138421875 0.921875
vt 0.0970953125 0.921875
vt 0.1604515625 0.921875
vt 0.1598609375 0.921875
vt 0.1598609375 0.828125
vt 0.1604515625 0.828125
vt 0.469853125 0.40654531250000003
vt 0.469853125 0.40595468749999997
vt 0.5 0.39787656250000003
vt 0.5 0.41462343749999997
vt 0.578125 0.39787656250000003
vt 0.578125 0.41462343749999997
vt 0.547978125 0.40654531250000003
vt 0.547978125 0.40595468749999997
vt 0.1138421875 0.828125
vt 0.13058906250000002 0.828125
vt 0.13058906250000002 0.921875
vt 0.1138421875 0.921875
vt 0.1598609375 0.921875
vt 0.1592703125 0.921875
vt 0.1592703125 0.828125
vt 0.1598609375 0.828125
vt 0.469853125 0.40595468749999997
vt 0.46955625 0.40544375
vt 0.49162656250000003 0.38337343749999997
vt 0.5 0.39787656250000003
vt 0.578125 0.41462343749999997
vt 0.5697515625 0.42912656250000003
vt 0.54768125 0.40705625
vt 0.547978125 0.40654531250000003
vt 0.2834734375 0.609375
vt 0.3002203125 0.609375
vt 0.3002203125 0.703125
vt 0.2834734375 0.703125
vt 0.3641671875 0.703125
vt 0.3635765625 0.703125
vt 0.3635765625 0.609375
vt 0.3641671875 0.609375
vt 0.46955625 0.40544375
vt 0.4690453125 0.405146875
vt 0.47712343749999997 0.375
vt 0.49162656250000003 0.38337343749999997
vt 0.5697515625 0.42912656250000003
vt 0.5552484375 0.4375
vt 0.5471703125 0.407353125
vt 0.54768125 0.40705625
vt 0.3002203125 0.609375
vt 0.31696718749999997 0.609375
vt 0.31696718749999997 0.703125
vt 0.3002203125 0.703125
vt 0.3635765625 0.703125
vt 0.3629859375 0.703125
vt 0.3629859375 0.609375
vt 0.3635765625 0.609375
vt 0.4690453125 0.405146875
vt 0.4684546875 0.405146875
vt 0.4603765625 0.375
vt 0.47712343749999997 0.375
vt 0.5552484375 0.4375
vt 0.5385015625 0.4375
vt 0.5465796875 0.407353125
vt 0.5471703125 0.407353125
vt 0.31696718749999997 0.609375
vt 0.3337140625 0.609375
vt 0.3337140625 0.703125
vt 0.31696718749999997 0.703125
vt 0.3629859375 0.703125
vt 0.3623953125 0.703125
vt 0.3623953125 0.609375
vt 0.3629859375 0.609375
vt 0.4684546875 0.405146875
vt 0.46794375 0.40544375
vt 0.4458734375 0.38337343749999997
vt 0.4603765625 0.375
vt 0.5385015625 0.4375
vt 0.5239984375 0.42912656250000003
vt 0.54606875 0.40705625
vt 0.5465796875 0.407353125
vt 0.2678484375 0.796875
vt 0.2845953125 0.796875
vt 0.2845953125 0.890625
vt 0.2678484375 0.890625
vt 0.3485421875 1
vt 0.3479515625 1
vt 0.3479515625 0.90625
vt 0.3485421875 0.90625
vt 0.46794375 0.40544375
vt 0.467646875 0.40595468749999997
vt 0.4375 0.39787656250000003
vt 0.4458734375 0.38337343749999997
vt 0.5239984375 0.42912656250000003
vt 0.515625 0.41462343749999997
vt 0.545771875 0.40654531250000003
vt 0.54606875 0.40705625
vt 0.2845953125 0.796875
vt 0.30134218749999997 0.796875
vt 0.30134218749999997 0.890625
vt 0.2845953125 0.890625
vt 0.3479515625 1
vt 0.3473609375 1
vt 0.3473609375 0.90625
vt 0.3479515625 0.90625
vt 0.467646875 0.40595468749999997
vt 0.467646875 0.40654531250000003
vt 0.4375 0.41462343749999997
vt 0.4375 0.39787656250000003
vt 0.515625 0.41462343749999997
vt 0.515625 0.39787656250000003
vt 0.545771875 0.40595468749999997
vt 0.545771875 0.40654531250000003
vt 0.30134218749999997 0.796875
vt 0.3180890625 0.796875
vt 0.3180890625 0.890625
vt 0.30134218749999997 0.890625
vt 0.3473609375 1
vt 0.3467703125 1
vt 0.3467703125 0.90625
vt 0.3473609375 0.90625
vt 0.467646875 0.40654531250000003
vt 0.46794375 0.40705625
vt 0.4458734375 0.42912656250000003
vt 0.4375 0.41462343749999997
vt 0.515625 0.39787656250000003
vt 0.5239984375 0.38337343749999997
vt 0.54606875 0.40544375
vt 0.545771875 0.40595468749999997
vt 0.2678484375 0.90625
vt 0.2845953125 0.90625
vt 0.2845953125 1
vt 0.2678484375 1
vt 0.3485421875 0.890625
vt 0.3479515625 0.890625
vt 0.3479515625 0.796875
vt 0.3485421875 0.796875
vt 0.46794375 0.40705625
vt 0.4684546875 0.407353125
vt 0.4603765625 0.4375
vt 0.4458734375 0.42912656250000003
vt 0.5239984375 0.38337343749999997
vt 0.5385015625 0.375
vt 0.5465796875 0.405146875
vt 0.54606875 0.40544375
vt 0.2845953125 0.90625
vt 0.30134218749999997 0.90625
vt 0.30134218749999997 1
vt 0.2845953125 1
vt 0.3479515625 0.890625
vt 0.3473609375 0.890625
vt 0.3473609375 0.796875
vt 0.3479515625 0.796875
vt 0.4684546875 0.407353125
vt 0.4690453125 0.407353125
vt 0.47712343749999997 0.4375
vt 0.4603765625 0.4375
vt 0.5385015625 0.375
vt 0.5552484375 0.375
vt 0.5471703125 0.405146875
vt 0.5465796875 0.405146875
vn 0.5000000000000001 0 0.8660254037844386
vn -0.5000000000000001 0 -0.8660254037844386
vn 0 -1 0
vn 0 1 0
vn 0.8660254037844386 0 0.5000000000000004
vn -0.8660254037844386 0 -0.5000000000000001
vn 0 -1 0
vn 0 1 0
vn 1 0 0
vn -1 0 0
vn 0 -1 0
vn 0 1 0
vn 0.8660254037844388 0 -0.5
vn -0.8660254037844386 0 0.5000000000000001
vn 0 -1 0
vn 0 1 0
vn 0.49999999999999967 0 -0.8660254037844388
vn -0.4999999999999999 0 0.8660254037844388
vn 0 -1 0
vn 0 1 0
vn 6.215113103450819e-16 0 -1
vn -3.67050858350722e-16 0 1
vn 0 -1 0
vn 0 1 0
vn -0.4999999999999996 0 -0.8660254037844388
vn 0.49999999999999933 0 0.866025403784439
vn 0 -1 0
vn 0 1 0
vn -0.8660254037844392 0 -0.49999999999999917
vn 0.8660254037844388 0 0.4999999999999996
vn 0 -1 0
vn 0 1 0
vn -1 0 -8.286817471267767e-16
vn 1 0 0
vn 0 -1 0
vn 0 1 0
vn -0.8660254037844388 0 0.4999999999999998
vn 0.866025403784439 0 -0.4999999999999994
vn 0 -1 0
vn 0 1 0
vn -0.5000000000000004 0 0.8660254037844386
vn 0.49999999999999994 0 -0.8660254037844387
vn 0 -1 0
vn 0 1 0
vn 0 0 1
vn 0 0 -1
vn 0 -1 0
vn 0 1 0
usemtl m_f409b067-f615-16a7-8dce-66d4317343d3
f 27/73/25 31/74/25 32/75/25 28/76/25
f 30/77/26 34/78/26 33/79/26 29/80/26
f 29/81/27 33/82/27 31/83/27 27/84/27
f 28/85/28 32/86/28 34/87/28 30/88/28
f 31/89/29 35/90/29 36/91/29 32/92/29
f 34/93/30 38/94/30 37/95/30 33/96/30
f 33/97/31 37/98/31 35/99/31 31/100/31
f 32/101/32 36/102/32 38/103/32 34/104/32
f 35/105/33 39/106/33 40/107/33 36/108/33
f 38/109/34 42/110/34 41/111/34 37/112/34
f 37/113/35 41/114/35 39/115/35 35/116/35
f 36/117/36 40/118/36 42/119/36 38/120/36
f 39/121/37 43/122/37 44/123/37 40/124/37
f 42/125/38 46/126/38 45/127/38 41/128/38
f 41/129/39 45/130/39 43/131/39 39/132/39
f 40/133/40 44/134/40 46/135/40 42/136/40
f 43/137/41 47/138/41 48/139/41 44/140/41
f 46/141/42 50/142/42 49/143/42 45/144/42
f 45/145/43 49/146/43 47/147/43 43/148/43
f 44/149/44 48/150/44 50/151/44 46/152/44
f 47/153/45 51/154/45 52/155/45 48/156/45
f 50/157/46 54/158/46 53/159/46 49/160/46
f 49/161/47 53/162/47 51/163/47 47/164/47
f 48/165/48 52/166/48 54/167/48 50/168/48
f 51/169/49 55/170/49 56/171/49 52/172/49
f 54/173/50 58/174/50 57/175/50 53/176/50
f 53/177/51 57/178/51 55/179/51 51/180/51
f 52/181/52 56/182/52 58/183/52 54/184/52
f 55/185/53 59/186/53 60/187/53 56/188/53
f 58/189/54 62/190/54 61/191/54 57/192/54
f 57/193/55 61/194/55 59/195/55 55/196/55
f 56/197/56 60/198/56 62/199/56 58/200/56
f 59/201/57 63/202/57 64/203/57 60/204/57
f 62/205/58 66/206/58 65/207/58 61/208/58
f 61/209/59 65/210/59 63/211/59 59/212/59
f 60/213/60 64/214/60 66/215/60 62/216/60
f 63/217/61 67/218/61 68/219/61 64/220/61
f 66/221/62 70/222/62 69/223/62 65/224/62
f 65/225/63 69/226/63 67/227/63 63/228/63
f 64/229/64 68/230/64 70/231/64 66/232/64
f 67/233/65 71/234/65 72/235/65 68/236/65
f 70/237/66 74/238/66 73/239/66 69/240/66
f 69/241/67 73/242/67 71/243/67 67/244/67
f 68/245/68 72/246/68 74/247/68 70/248/68
f 71/249/69 27/250/69 28/251/69 72/252/69
f 74/253/70 30/254/70 29/255/70 73/256/70
f 73/257/71 29/258/71 27/259/71 71/260/71
f 72/261/72 28/262/72 30/263/72 74/264/72
o tube
v 0.5358983848622453 0.25 1.9999999999999998
v 0.5358983848622453 1.25 1.9999999999999998
v 0.42082823675255665 0.25 1.570552360820166
v 0.42082823675255665 1.25 1.570552360820166
v 1.4641016151377544 0.25 1.4641016151377546
v 1.4641016151377544 1.25 1.4641016151377546
v 1.149724124067609 0.25 1.1497241240676093
v 1.149724124067609 1.25 1.1497241240676093
v 1.9999999999999998 0.25 0.5358983848622453
v 1.9999999999999998 1.25 0.5358983848622453
v 1.570552360820166 0.25 0.42082823675255665
v 1.570552360820166 1.25 0.42082823675255665
v 1.9999999999999998 0.25 -0.5358983848622455
v 1.9999999999999998 1.25 -0.5358983848622455
v 1.570552360820166 0.25 -0.4208282367525568
v 1.570552360820166 1.25 -0.4208282367525568
v 1.4641016151377546 0.25 -1.4641016151377544
v 1.4641016151377546 1.25 -1.4641016151377544
v 1.1497241240676093 0.25 -1.149724124067609
v 1.1497241240676093 1.25 -1.149724124067609
v 0.535898384862246 0.25 -1.9999999999999996
v 0.535898384862246 1.25 -1.9999999999999996
v 0.4208282367525571 0.25 -1.5705523608201657
v 0.4208282367525571 1.25 -1.5705523608201657
v -0.5358983848622445 0.25 -2
v -0.5358983848622445 1.25 -2
v -0.420828236752556 0.25 -1.5705523608201661
v -0.420828236752556 1.25 -1.5705523608201661
v -1.4641016151377544 0.25 -1.4641016151377548
v -1.4641016151377544 1.25 -1.4641016151377548
v -1.149724124067609 0.25 -1.1497241240676095
v -1.149724124067609 1.25 -1.1497241240676095
v -1.9999999999999998 0.25 -0.5358983848622451
v -1.9999999999999998 1.25 -0.5358983848622451
v -1.570552360820166 0.25 -0.4208282367525565
v -1.570552360820166 1.25 -0.4208282367525565
v -2 0.25 0.5358983848622444
v -2 1.25 0.5358983848622444
v -1.5705523608201661 0.25 0.42082823675255593
v -1.5705523608201661 1.25 0.42082823675255593
v -1.4641016151377548 0.25 1.4641016151377542
v -1.4641016151377548 1.25 1.4641016151377542
v -1.1497241240676095 0.25 1.1497241240676088
v -1.1497241240676095 1.25 1.1497241240676088
v -0.5358983848622452 0.25 1.9999999999999998
v -0.5358983848622452 1.25 1.9999999999999998
v -0.42082823675255654 0.25 1.570552360820166
v -0.42082823675255654 1.25 1.570552360820166
vt 0.294090625 0.6363636363636364
vt 0.32758437500000004 0.6363636363636364
vt 0.32758437500000004 0.6832844574780059
vt 0.294090625 0.6832844574780059
vt 0.02786484375 0.7419354838709677
vt 0.0015632812499999996 0.7419354838709677
vt 0.0015632812499999996 0.6950146627565983
vt 0.02786484375 0.6950146627565983
vt 0.07565078125 0.979849853372434
vt 0.09842890625 0.9601043988269795
vt 0.108253125 0.9748551319648093
vt 0.079246875 1
vt 0.180809375 0.6480938416422287
vt 0.209815625 0.6732387096774193
vt 0.19999140625 0.6879894428152493
vt 0.17721328125 0.6682439882697948
vt 0.000540624999999996 0.6363636363636364
vt 0.034034375 0.6363636363636364
vt 0.034034375 0.6832844574780059
vt 0.000540624999999996 0.6832844574780059
vt 0.08046796875000001 0.8005865102639296
vt 0.05416640625 0.8005865102639296
vt 0.05416640625 0.7536656891495601
vt 0.08046796875000001 0.7536656891495601
vt 0.09842890625 0.9601043988269795
vt 0.1115796875 0.9259038123167156
vt 0.125 0.9313032258064516
vt 0.108253125 0.9748551319648093
vt 0.209815625 0.6732387096774193
vt 0.2265625 0.7167906158357771
vt 0.2131421875 0.7221900293255132
vt 0.19999140625 0.6879894428152493
vt 0.034034375 0.6363636363636364
vt 0.067528125 0.6363636363636364
vt 0.067528125 0.6832844574780059
vt 0.034034375 0.6832844574780059
vt 0.05416640625 0.8005865102639296
vt 0.02786484375 0.8005865102639296
vt 0.02786484375 0.7536656891495601
vt 0.05416640625 0.7536656891495601
vt 0.1115796875 0.9259038123167156
vt 0.1115796875 0.8864129032258065
vt 0.125 0.8810134897360704
vt 0.125 0.9313032258064516
vt 0.2265625 0.7167906158357771
vt 0.2265625 0.7670803519061583
vt 0.2131421875 0.7616809384164223
vt 0.2131421875 0.7221900293255132
vt 0.067528125 0.6363636363636364
vt 0.10102187500000001 0.6363636363636364
vt 0.10102187500000001 0.6832844574780059
vt 0.067528125 0.6832844574780059
vt 0.02786484375 0.8005865102639296
vt 0.0015632812499999996 0.8005865102639296
vt 0.0015632812499999996 0.7536656891495601
vt 0.02786484375 0.7536656891495601
vt 0.1115796875 0.8864129032258065
vt 0.09842890625 0.8522123167155425
vt 0.108253125 0.8374615835777126
vt 0.125 0.8810134897360704
vt 0.2265625 0.7670803519061583
vt 0.209815625 0.8106322580645161
vt 0.19999140625 0.7958815249266862
vt 0.2131421875 0.7616809384164223
vt 0.234915625 0.6950146627565983
vt 0.268409375 0.6950146627565983
vt 0.268409375 0.7419354838709677
vt 0.234915625 0.7419354838709677
vt 0.08046796875000001 0.624633431085044
vt 0.05416640625 0.624633431085044
vt 0.05416640625 0.5777126099706744
vt 0.08046796875000001 0.5777126099706744
vt 0.09842890625 0.8522123167155425
vt 0.07565078125 0.8324668621700879
vt 0.079246875 0.8123167155425219
vt 0.108253125 0.8374615835777126
vt 0.209815625 0.8106322580645161
vt 0.180809375 0.8357771260997068
vt 0.17721328125 0.8156269794721407
vt 0.19999140625 0.7958815249266862
vt 0.268409375 0.6950146627565983
vt 0.301903125 0.6950146627565983
vt 0.301903125 0.7419354838709677
vt 0.268409375 0.7419354838709677
vt 0.05416640625 0.624633431085044
vt 0.02786484375 0.624633431085044
vt 0.02786484375 0.5777126099706744
vt 0.05416640625 0.5777126099706744
vt 0.07565078125 0.8324668621700879
vt 0.04934921875 0.8324668621700879
vt 0.045753125 0.8123167155425219
vt 0.079246875 0.8123167155425219
vt 0.180809375 0.8357771260997068
vt 0.147315625 0.8357771260997068
vt 0.15091171875 0.8156269794721407
vt 0.17721328125 0.8156269794721407
vt 0.301903125 0.6950146627565983
vt 0.33539687500000004 0.6950146627565983
vt 0.33539687500000004 0.7419354838709677
vt 0.301903125 0.7419354838709677
vt 0.02786484375 0.624633431085044
vt 0.0015632812499999996 0.624633431085044
vt 0.0015632812499999996 0.5777126099706744
vt 0.02786484375 0.5777126099706744
vt 0.04934921875 0.8324668621700879
vt 0.026571093749999997 0.8522123167155425
vt 0.016746875 0.8374615835777126
vt 0.045753125 0.8123167155425219
vt 0.147315625 0.8357771260997068
vt 0.118309375 0.8106322580645161
vt 0.12813359375 0.7958815249266862
vt 0.15091171875 0.8156269794721407
vt 0.234915625 0.7536656891495601
vt 0.268409375 0.7536656891495601
vt 0.268409375 0.8005865102639296
vt 0.234915625 0.8005865102639296
vt 0.18984296875 0.6363636363636364
vt 0.16354140625 0.6363636363636364
vt 0.16354140625 0.5894428152492668
vt 0.18984296875 0.5894428152492668
vt 0.026571093749999997 0.8522123167155425
vt 0.013420312500000003 0.8864129032258065
vt 0 0.8810134897360704
vt 0.016746875 0.8374615835777126
vt 0.118309375 0.8106322580645161
vt 0.1015625 0.7670803519061583
vt 0.1149828125 0.7616809384164223
vt 0.12813359375 0.7958815249266862
vt 0.268409375 0.7536656891495601
vt 0.301903125 0.7536656891495601
vt 0.301903125 0.8005865102639296
vt 0.268409375 0.8005865102639296
vt 0.16354140625 0.6363636363636364
vt 0.13723984375 0.6363636363636364
vt 0.13723984375 0.5894428152492668
vt 0.16354140625 0.5894428152492668
vt 0.013420312500000003 0.8864129032258065
vt 0.013420312500000003 0.9259038123167156
vt 0 0.9313032258064516
vt 0 0.8810134897360704
vt 0.1015625 0.7670803519061583
vt 0.1015625 0.7167906158357771
vt 0.1149828125 0.7221900293255132
vt 0.1149828125 0.7616809384164223
vt 0.301903125 0.7536656891495601
vt 0.33539687500000004 0.7536656891495601
vt 0.33539687500000004 0.8005865102639296
vt 0.301903125 0.8005865102639296
vt 0.13723984375 0.6363636363636364
vt 0.11093828124999999 0.6363636363636364
vt 0.11093828124999999 0.5894428152492668
vt 0.13723984375 0.5894428152492668
vt 0.013420312500000003 0.9259038123167156
vt 0.026571093749999997 0.9601043988269795
vt 0.016746875 0.9748551319648093
vt 0 0.9313032258064516
vt 0.1015625 0.7167906158357771
vt 0.118309375 0.6732387096774193
vt 0.12813359375 0.6879894428152493
vt 0.1149828125 0.7221900293255132
vt 0.227103125 0.6363636363636364
vt 0.260596875 0.6363636363636364
vt 0.260596875 0.6832844574780059
vt 0.227103125 0.6832844574780059
vt 0.08046796875000001 0.7419354838709677
vt 0.05416640625 0.7419354838709677
vt 0.05416640625 0.6950146627565983
vt 0.08046796875000001 0.6950146627565983
vt 0.026571093749999997 0.9601043988269795
vt 0.04934921875 0.979849853372434
vt 0.045753125 1
vt 0.016746875 0.9748551319648093
vt 0.118309375 0.6732387096774193
vt 0.147315625 0.6480938416422287
vt 0.15091171875 0.6682439882697948
vt 0.12813359375 0.6879894428152493
vt 0.260596875 0.6363636363636364
vt 0.294090625 0.6363636363636364
vt 0.294090625 0.6832844574780059
vt 0.260596875 0.6832844574780059
vt 0.05416640625 0.7419354838709677
vt 0.02786484375 0.7419354838709677
vt 0.02786484375 0.6950146627565983
vt 0.05416640625 0.6950146627565983
vt 0.04934921875 0.979849853372434
vt 0.07565078125 0.979849853372434
vt 0.079246875 1
vt 0.045753125 1
vt 0.147315625 0.6480938416422287
vt 0.180809375 0.6480938416422287
vt 0.17721328125 0.6682439882697948
vt 0.15091171875 0.6682439882697948
vn 0.4999999999999999 0 0.8660254037844388
vn -0.5000000000000001 0 -0.8660254037844388
vn 0 -1 0
vn 0 1 0
vn 0.8660254037844388 0 0.5
vn -0.8660254037844386 0 -0.5000000000000001
vn 0 -1 0
vn 0 1 0
vn 1 0 0
vn -1 0 0
vn 0 -1 0
vn 0 1 0
vn 0.8660254037844388 0 -0.5
vn -0.8660254037844386 0 0.5000000000000001
vn 0 -1 0
vn 0 1 0
vn 0.5000000000000001 0 -0.8660254037844388
vn -0.5000000000000001 0 0.8660254037844386
vn 0 -1 0
vn 0 1 0
vn 4.143408735633879e-16 0 -1
vn -5.276371344244937e-16 0 1
vn 0 -1 0
vn 0 1 0
vn -0.4999999999999996 0 -0.8660254037844389
vn 0.4999999999999997 0 0.8660254037844389
vn 0 -1 0
vn 0 1 0
vn -0.8660254037844389 0 -0.4999999999999998
vn 0.8660254037844387 0 0.4999999999999999
vn 0 -1 0
vn 0 1 0
vn -1 0 -2.0717043678169412e-16
vn 1 0 2.6381856721224704e-16
vn 0 -1 0
vn 0 1 0
vn -0.8660254037844389 0 0.4999999999999996
vn 0.8660254037844388 0 -0.4999999999999998
vn 0 -1 0
vn 0 1 0
vn -0.4999999999999999 0 0.8660254037844386
vn 0.5000000000000001 0 -0.8660254037844386
vn 0 -1 0
vn 0 1 0
vn 0 0 1
vn 0 0 -1
vn 0 -1 0
vn 0 1 0
usemtl m_b40be843-3692-4c99-521b-6be8b336f0c1
f 75/265/73 79/266/73 80/267/73 76/268/73
f 78/269/74 82/270/74 81/271/74 77/272/74
f 77/273/75 81/274/75 79/275/75 75/276/75
f 76/277/76 80/278/76 82/279/76 78/280/76
f 79/281/77 83/282/77 84/283/77 80/284/77
f 82/285/78 86/286/78 85/287/78 81/288/78
f 81/289/79 85/290/79 83/291/79 79/292/79
f 80/293/80 84/294/80 86/295/80 82/296/80
f 83/297/81 87/298/81 88/299/81 84/300/81
f 86/301/82 90/302/82 89/303/82 85/304/82
f 85/305/83 89/306/83 87/307/83 83/308/83
f 84/309/84 88/310/84 90/311/84 86/312/84
f 87/313/85 91/314/85 92/315/85 88/316/85
f 90/317/86 94/318/86 93/319/86 89/320/86
f 89/321/87 93/322/87 91/323/87 87/324/87
f 88/325/88 92/326/88 94/327/88 90/328/88
f 91/329/89 95/330/89 96/331/89 92/332/89
f 94/333/90 98/334/90 97/335/90 93/336/90
f 93/337/91 97/338/91 95/339/91 91/340/91
f 92/341/92 96/342/92 98/343/92 94/344/92
f 95/345/93 99/346/93 100/347/93 96/348/93
f 98/349/94 102/350/94 101/351/94 97/352/94
f 97/353/95 101/354/95 99/355/95 95/356/95
f 96/357/96 100/358/96 102/359/96 98/360/96
f 99/361/97 103/362/97 104/363/97 100/364/97
f 102/365/98 106/366/98 105/367/98 101/368/98
f 101/369/99 105/370/99 103/371/99 99/372/99
f 100/373/100 104/374/100 106/375/100 102/376/100
f 103/377/101 107/378/101 108/379/101 104/380/101
f 106/381/102 110/382/102 109/383/102 105/384/102
f 105/385/103 109/386/103 107/387/103 103/388/103
f 104/389/104 108/390/104 110/391/104 106/392/104
f 107/393/105 111/394/105 112/395/105 108/396/105
f 110/397/106 114/398/106 113/399/106 109/400/106
f 109/401/107 113/402/107 111/403/107 107/404/107
f 108/405/108 112/406/108 114/407/108 110/408/108
f 111/409/109 115/410/109 116/411/109 112/412/109
f 114/413/110 118/414/110 117/415/110 113/416/110
f 113/417/111 117/418/111 115/419/111 111/420/111
f 112/421/112 116/422/112 118/423/112 114/424/112
f 115/425/113 119/426/113 120/427/113 116/428/113
f 118/429/114 122/430/114 121/431/114 117/432/114
f 117/433/115 121/434/115 119/435/115 115/436/115
f 116/437/116 120/438/116 122/439/116 118/440/116
f 119/441/117 75/442/117 76/443/117 120/444/117
f 122/445/118 78/446/118 77/447/118 121/448/118
f 121/449/119 77/450/119 75/451/119 119/452/119
f 120/453/120 76/454/120 78/455/120 122/456/120
o tube
v 0.26794919243112264 1.875 1
v 0.26794919243112264 2.625 1
v 0.21041411837627835 1.875 0.785276180410083
v 0.21041411837627835 2.625 0.785276180410083
v 0.7320508075688772 1.875 0.7320508075688773
v 0.7320508075688772 2.625 0.7320508075688773
v 0.5748620620338044 1.875 0.5748620620338046
v 0.5748620620338044 2.625 0.5748620620338046
v 1 1.875 0.26794919243112264
v 1 2.625 0.26794919243112264
v 0.785276180410083 1.875 0.21041411837627835
v 0.785276180410083 2.625 0.21041411837627835
v 1 1.875 -0.26794919243112275
v 1 2.625 -0.26794919243112275
v 0.785276180410083 1.875 -0.21041411837627844
v 0.785276180410083 2.625 -0.21041411837627844
v 0.7320508075688773 1.875 -0.7320508075688773
v 0.7320508075688773 2.625 -0.7320508075688773
v 0.5748620620338046 1.875 -0.5748620620338044
v 0.5748620620338046 2.625 -0.5748620620338044
v 0.2679491924311229 1.875 -0.9999999999999998
v 0.2679491924311229 2.625 -0.9999999999999998
v 0.21041411837627852 1.875 -0.7852761804100826
v 0.21041411837627852 2.625 -0.7852761804100826
v -0.26794919243112225 1.875 -1
v -0.26794919243112225 2.625 -1
v -0.21041411837627802 1.875 -0.785276180410083
v -0.21041411837627802 2.625 -0.785276180410083
v -0.7320508075688773 1.875 -0.7320508075688777
v -0.7320508075688773 2.625 -0.7320508075688777
v -0.5748620620338044 1.875 -0.5748620620338046
v -0.5748620620338044 2.625 -0.5748620620338046
v -0.9999999999999998 1.875 -0.26794919243112253
v -0.9999999999999998 2.625 -0.26794919243112253
v -0.785276180410083 1.875 -0.21041411837627824
v -0.785276180410083 2.625 -0.21041411837627824
v -1 1.875 0.2679491924311222
v -1 2.625 0.2679491924311222
v -0.785276180410083 1.875 0.21041411837627794
v -0.785276180410083 2.625 0.21041411837627794
v -0.7320508075688777 1.875 0.7320508075688772
v -0.7320508075688777 2.625 0.7320508075688772
v -0.5748620620338046 1.875 0.5748620620338044
v -0.5748620620338046 2.625 0.5748620620338044
v -0.26794919243112264 1.875 1
v -0.26794919243112264 2.625 1
v -0.2104141183762783 1.875 0.785276180410083
v -0.2104141183762783 2.625 0.785276180410083
vt 0.5987781249999999 0.453125
vt 0.632271875 0.453125
vt 0.632271875 0.5
vt 0.5987781249999999 0.5
vt 0.1391921875 0.375
vt 0.1128890625 0.375
vt 0.1128890625 0.328125
vt 0.1391921875 0.328125
vt 0.1513015625 0.973159375
vt 0.1968578125 0.9468578125
vt 0.21650625 0.96650625
vt 0.15849375 1
vt 0.36161875 0.53125
vt 0.41963125 0.56474375
vt 0.3999828125 0.5843921875
vt 0.3544265625 0.558090625
vt 0.406790625 0.453125
vt 0.440284375 0.453125
vt 0.440284375 0.5
vt 0.406790625 0.5
vt 0.0824234375 0.421875
vt 0.0561203125 0.421875
vt 0.0561203125 0.375
vt 0.0824234375 0.375
vt 0.1968578125 0.9468578125
vt 0.223159375 0.9013015625
vt 0.25 0.90849375
vt 0.21650625 0.96650625
vt 0.41963125 0.56474375
vt 0.453125 0.62275625
vt 0.426284375 0.6299484375
vt 0.3999828125 0.5843921875
vt 0.440284375 0.453125
vt 0.473778125 0.453125
vt 0.473778125 0.5
vt 0.440284375 0.5
vt 0.0561203125 0.421875
vt 0.0298171875 0.421875
vt 0.0298171875 0.375
vt 0.0561203125 0.375
vt 0.223159375 0.9013015625
vt 0.223159375 0.8486984375
vt 0.25 0.84150625
vt 0.25 0.90849375
vt 0.453125 0.62275625
vt 0.453125 0.68974375
vt 0.426284375 0.6825515625
vt 0.426284375 0.6299484375
vt 0.473778125 0.453125
vt 0.507271875 0.453125
vt 0.507271875 0.5
vt 0.473778125 0.5
vt 0.0298171875 0.421875
vt 0.003514062499999998 0.421875
vt 0.003514062499999998 0.375
vt 0.0298171875 0.375
vt 0.223159375 0.8486984375
vt 0.1968578125 0.8031421875
vt 0.21650625 0.78349375
vt 0.25 0.84150625
vt 0.453125 0.68974375
vt 0.41963125 0.74775625
vt 0.3999828125 0.7281078125
vt 0.426284375 0.6825515625
vt 0.313040625 0.390625
vt 0.346534375 0.390625
vt 0.346534375 0.4375
vt 0.313040625 0.4375
vt 0.30117343750000003 0.375
vt 0.2748703125 0.375
vt 0.2748703125 0.328125
vt 0.30117343750000003 0.328125
vt 0.1968578125 0.8031421875
vt 0.1513015625 0.776840625
vt 0.15849375 0.75
vt 0.21650625 0.78349375
vt 0.41963125 0.74775625
vt 0.36161875 0.78125
vt 0.3544265625 0.754409375
vt 0.3999828125 0.7281078125
vt 0.346534375 0.390625
vt 0.380028125 0.390625
vt 0.380028125 0.4375
vt 0.346534375 0.4375
vt 0.2748703125 0.375
vt 0.2485671875 0.375
vt 0.2485671875 0.328125
vt 0.2748703125 0.328125
vt 0.1513015625 0.776840625
vt 0.0986984375 0.776840625
vt 0.09150625 0.75
vt 0.15849375 0.75
vt 0.36161875 0.78125
vt 0.29463125 0.78125
vt 0.3018234375 0.754409375
vt 0.3544265625 0.754409375
vt 0.380028125 0.390625
vt 0.41352187500000004 0.390625
vt 0.41352187500000004 0.4375
vt 0.380028125 0.4375
vt 0.2485671875 0.375
vt 0.2222640625 0.375
vt 0.2222640625 0.328125
vt 0.2485671875 0.328125
vt 0.0986984375 0.776840625
vt 0.05314218749999999 0.8031421875
vt 0.03349375 0.78349375
vt 0.09150625 0.75
vt 0.29463125 0.78125
vt 0.23661875 0.74775625
vt 0.2562671875 0.7281078125
vt 0.3018234375 0.754409375
vt 0.188040625 0.390625
vt 0.221534375 0.390625
vt 0.221534375 0.4375
vt 0.188040625 0.4375
vt 0.6761734375 0.4375
vt 0.6498703125 0.4375
vt 0.6498703125 0.390625
vt 0.6761734375 0.390625
vt 0.05314218749999999 0.8031421875
vt 0.026840625000000007 0.8486984375
vt 0 0.84150625
vt 0.03349375 0.78349375
vt 0.23661875 0.74775625
vt 0.203125 0.68974375
vt 0.229965625 0.6825515625
vt 0.2562671875 0.7281078125
vt 0.221534375 0.390625
vt 0.255028125 0.390625
vt 0.255028125 0.4375
vt 0.221534375 0.4375
vt 0.6498703125 0.4375
vt 0.6235671875 0.4375
vt 0.6235671875 0.390625
vt 0.6498703125 0.390625
vt 0.026840625000000007 0.8486984375
vt 0.026840625000000007 0.9013015625
vt 0 0.90849375
vt 0 0.84150625
vt 0.203125 0.68974375
vt 0.203125 0.62275625
vt 0.229965625 0.6299484375
vt 0.229965625 0.6825515625
vt 0.255028125 0.390625
vt 0.28852187500000004 0.390625
vt 0.28852187500000004 0.4375
vt 0.255028125 0.4375
vt 0.6235671875 0.4375
vt 0.5972640625 0.4375
vt 0.5972640625 0.390625
vt 0.6235671875 0.390625
vt 0.026840625000000007 0.9013015625
vt 0.05314218749999999 0.9468578125
vt 0.03349375 0.96650625
vt 0 0.90849375
vt 0.203125 0.62275625
vt 0.23661875 0.56474375
vt 0.2562671875 0.5843921875
vt 0.229965625 0.6299484375
vt 0.531790625 0.453125
vt 0.565284375 0.453125
vt 0.565284375 0.5
vt 0.531790625 0.5
vt 0.1917984375 0.375
vt 0.1654953125 0.375
vt 0.1654953125 0.328125
vt 0.1917984375 0.328125
vt 0.05314218749999999 0.9468578125
vt 0.0986984375 0.973159375
vt 0.09150625 1
vt 0.03349375 0.96650625
vt 0.23661875 0.56474375
vt 0.29463125 0.53125
vt 0.3018234375 0.558090625
vt 0.2562671875 0.5843921875
vt 0.565284375 0.453125
vt 0.5987781249999999 0.453125
vt 0.5987781249999999 0.5
vt 0.565284375 0.5
vt 0.1654953125 0.375
vt 0.1391921875 0.375
vt 0.1391921875 0.328125
vt 0.1654953125 0.328125
vt 0.0986984375 0.973159375
vt 0.1513015625 0.973159375
vt 0.15849375 1
vt 0.09150625 1
vt 0.29463125 0.53125
vt 0.36161875 0.53125
vt 0.3544265625 0.558090625
vt 0.3018234375 0.558090625
vn 0.5000000000000001 0 0.8660254037844387
vn -0.5000000000000002 0 -0.8660254037844386
vn 0 -1 0
vn 0 1 0
vn 0.8660254037844386 0 0.5000000000000001
vn -0.8660254037844386 0 -0.5000000000000003
vn 0 -1 0
vn 0 1 0
vn 1 0 0
vn -1 0 0
vn 0 -1 0
vn 0 1 0
vn 0.8660254037844387 0 -0.5000000000000001
vn -0.8660254037844387 0 0.5000000000000003
vn 0 -1 0
vn 0 1 0
vn 0.4999999999999999 0 -0.8660254037844388
vn -0.5 0 0.8660254037844388
vn 0 -1 0
vn 0 1 0
vn 4.143408735633879e-16 0 -1
vn -7.914557016367404e-16 0 1
vn 0 -1 0
vn 0 1 0
vn -0.49999999999999906 0 -0.8660254037844394
vn 0.49999999999999983 0 0.8660254037844387
vn 0 -1 0
vn 0 1 0
vn -0.8660254037844392 0 -0.49999999999999917
vn 0.8660254037844386 0 0.5000000000000002
vn 0 -1 0
vn 0 1 0
vn -1 0 -4.1434087356338823e-16
vn 1 0 0
vn 0 -1 0
vn 0 1 0
vn -0.8660254037844392 0 0.49999999999999906
vn 0.8660254037844389 0 -0.49999999999999983
vn 0 -1 0
vn 0 1 0
vn -0.4999999999999997 0 0.8660254037844388
vn 0.5000000000000003 0 -0.8660254037844386
vn 0 -1 0
vn 0 1 0
vn 0 0 1
vn 0 0 -1
vn 0 -1 0
vn 0 1 0
usemtl m_f409b067-f615-16a7-8dce-66d4317343d3
f 123/457/121 127/458/121 128/459/121 124/460/121
f 126/461/122 130/462/122 129/463/122 125/464/122
f 125/465/123 129/466/123 127/467/123 123/468/123
f 124/469/124 128/470/124 130/471/124 126/472/124
f 127/473/125 131/474/125 132/475/125 128/476/125
f 130/477/126 134/478/126 133/479/126 129/480/126
f 129/481/127 133/482/127 131/483/127 127/484/127
f 128/485/128 132/486/128 134/487/128 130/488/128
f 131/489/129 135/490/129 136/491/129 132/492/129
f 134/493/130 138/494/130 137/495/130 133/496/130
f 133/497/131 137/498/131 135/499/131 131/500/131
f 132/501/132 136/502/132 138/503/132 134/504/132
f 135/505/133 139/506/133 140/507/133 136/508/133
f 138/509/134 142/510/134 141/511/134 137/512/134
f 137/513/135 141/514/135 139/515/135 135/516/135
f 136/517/136 140/518/136 142/519/136 138/520/136
f 139/521/137 143/522/137 144/523/137 140/524/137
f 142/525/138 146/526/138 145/527/138 141/528/138
f 141/529/139 145/530/139 143/531/139 139/532/139
f 140/533/140 144/534/140 146/535/140 142/536/140
f 143/537/141 147/538/141 148/539/141 144/540/141
f 146/541/142 150/542/142 149/543/142 145/544/142
f 145/545/143 149/546/143 147/547/143 143/548/143
f 144/549/144 148/550/144 150/551/144 146/552/144
f 147/553/145 151/554/145 152/555/145 148/556/145
f 150/557/146 154/558/146 153/559/146 149/560/146
f 149/561/147 153/562/147 151/563/147 147/564/147
f 148/565/148 152/566/148 154/567/148 150/568/148
f 151/569/149 155/570/149 156/571/149 152/572/149
f 154/573/150 158/574/150 157/575/150 153/576/150
f 153/577/151 157/578/151 155/579/151 151/580/151
f 152/581/152 156/582/152 158/583/152 154/584/152
f 155/585/153 159/586/153 160/587/153 156/588/153
f 158/589/154 162/590/154 161/591/154 157/592/154
f 157/593/155 161/594/155 159/595/155 155/596/155
f 156/597/156 160/598/156 162/599/156 158/600/156
f 159/601/157 163/602/157 164/603/157 160/604/157
f 162/605/158 166/606/158 165/607/158 161/608/158
f 161/609/159 165/610/159 163/611/159 159/612/159
f 160/613/160 164/614/160 166/615/160 162/616/160
f 163/617/161 167/618/161 168/619/161 164/620/161
f 166/621/162 170/622/162 169/623/162 165/624/162
f 165/625/163 169/626/163 167/627/163 163/628/163
f 164/629/164 168/630/164 170/631/164 166/632/164
f 167/633/165 123/634/165 124/635/165 168/636/165
f 170/637/166 126/638/166 125/639/166 169/640/166
f 169/641/167 125/642/167 123/643/167 167/644/167
f 168/645/168 124/646/168 126/647/168 170/648/168