# Made in Blockbench 5.1.6
mtllib ParkGate-LowPoly.mtl

o tube
v -0.4180837392637612 0 0.04687499999999999
v -0.4180837392637612 1.0625 0.04687499999999999
v -0.4553165122927293 0 -0.043012865611294034
v -0.4553165122927293 1.0625 -0.043012865611294034
v -0.390625 0 0.01941626073623883
v -0.390625 1.0625 0.01941626073623883
v -0.480512865611294 0 -0.0178165122927293
v -0.480512865611294 1.0625 -0.0178165122927293
v -0.390625 0 -0.01941626073623883
v -0.390625 1.0625 -0.01941626073623883
v -0.480512865611294 0 0.017816512292729292
v -0.480512865611294 1.0625 0.017816512292729292
v -0.4180837392637612 0 -0.04687499999999999
v -0.4180837392637612 1.0625 -0.04687499999999999
v -0.4553165122927293 0 0.04301286561129403
v -0.4553165122927293 1.0625 0.04301286561129403
v -0.4569162607362388 0 -0.04687500000000001
v -0.4569162607362388 1.0625 -0.04687500000000001
v -0.4196834877072707 0 0.043012865611294034
v -0.4196834877072707 1.0625 0.043012865611294034
v -0.484375 0 -0.019416260736238863
v -0.484375 1.0625 -0.019416260736238863
v -0.394487134388706 0 0.01781651229272932
v -0.394487134388706 1.0625 0.01781651229272932
v -0.484375 0 0.019416260736238842
v -0.484375 1.0625 0.019416260736238842
v -0.394487134388706 0 -0.017816512292729306
v -0.394487134388706 1.0625 -0.017816512292729306
v -0.45691626073623887 0 0.046874999999999986
v -0.45691626073623887 1.0625 0.046874999999999986
v -0.41968348770727065 0 -0.04301286561129402
v -0.41968348770727065 1.0625 -0.04301286561129402
vt 0 0.734375
vt 0.015625 0.734375
vt 0.015625 1
vt 0 1
vt 0.03125 1
vt 0.015625 1
vt 0.015625 0.734375
vt 0.03125 0.734375
vt 0.16891535663236193 0.6962879379634863
vt 0.16811556874212064 0.71875
vt 0.15920964336763807 0.7185914972966783
vt 0.15920964336763807 0.6961152010804073
vt 0.2842096433676381 0.8279664972966784
vt 0.2842096433676381 0.8054902010804073
vt 0.2939153566323619 0.8056629379634864
vt 0.29311556874212064 0.828125
vt 0 0.734375
vt 0.015625 0.734375
vt 0.015625 1
vt 0 1
vt 0.03125 1
vt 0.015625 1
vt 0.015625 0.734375
vt 0.03125 0.734375
vt 0.3081919983644643 0.875
vt 0.2857165636408461 0.875
vt 0.2855580016355357 0.8660920360922881
vt 0.30801919859227933 0.8652921627985757
vt 0.2855580016355357 0.8660920360922881
vt 0.30801919859227933 0.8652921627985757
vt 0.3081919983644643 0.875
vt 0.2857165636408461 0.875
vt 0 0.734375
vt 0.015625 0.734375
vt 0.015625 1
vt 0 1
vt 0.03125 1
vt 0.015625 1
vt 0.015625 0.734375
vt 0.03125 0.734375
vt 0.05801966257671723 0.90625
vt 0.03555760054020362 0.9054502121097587
vt 0.03571610324352528 0.890625
vt 0.05819239945979638 0.890625
vt 0.12946610324352528 0.953125
vt 0.15194239945979637 0.953125
vt 0.15176966257671723 0.96875
vt 0.12930760054020363 0.9679502121097587
vt 0 0.734375
vt 0.015625 0.734375
vt 0.015625 1
vt 0 1
vt 0.03125 1
vt 0.015625 1
vt 0.015625 0.734375
vt 0.03125 0.734375
vt 0.28420858139928784 0.859375
vt 0.28420858139928784 0.8368995652763818
vt 0.2931165453069997 0.8367410032710714
vt 0.29391641860071216 0.859202200227815
vt 0.2931165453069997 0.8367410032710714
vt 0.29391641860071216 0.859202200227815
vt 0.28420858139928784 0.859375
vt 0.28420858139928784 0.8368995652763818
vt 0 0.734375
vt 0.015625 0.734375
vt 0.015625 1
vt 0 1
vt 0.03125 1
vt 0.015625 1
vt 0.015625 0.734375
vt 0.03125 0.734375
vt 0.28125 0.9685772631169208
vt 0.28204978789024127 0.9461152010804073
vt 0.296875 0.9462737037837289
vt 0.296875 0.96875
vt 0.296875 0.9150237037837289
vt 0.296875 0.9375
vt 0.28125 0.9373272631169208
vt 0.28204978789024127 0.9148652010804073
vt 0 0.734375
vt 0.015625 0.734375
vt 0.015625 1
vt 0 1
vt 0.03125 1
vt 0.015625 1
vt 0.015625 0.734375
vt 0.03125 0.734375
vt 0.12930800163553569 0.859375
vt 0.15178343635915392 0.859375
vt 0.15194199836446431 0.8742001267062876
vt 0.12948080140772067 0.875
vt 0.15194199836446431 0.8742001267062876
vt 0.12948080140772067 0.875
vt 0.12930800163553569 0.859375
vt 0.15178343635915392 0.859375
vt 0 0.734375
vt 0.015625 0.734375
vt 0.015625 1
vt 0 1
vt 0.03125 1
vt 0.015625 1
vt 0.015625 0.734375
vt 0.03125 0.734375
vt 0.2857303374232828 0.7871692867352762
vt 0.3081923994597964 0.7879690746255175
vt 0.30803389675647475 0.796875
vt 0.2855576005402036 0.796875
vt 0.30803389675647475 0.78125
vt 0.2855576005402036 0.78125
vt 0.2857303374232828 0.7715442867352762
vt 0.3081923994597964 0.7723440746255175
vt 0 0.734375
vt 0.015625 0.734375
vt 0.015625 1
vt 0 1
vt 0.03125 1
vt 0.015625 1
vt 0.015625 0.734375
vt 0.03125 0.734375
vt 0.296875 0.8836160032710714
vt 0.296875 0.9060914379946896
vt 0.28204987329371245 0.90625
vt 0.28125 0.8837888030432564
vt 0.28204987329371245 0.90625
vt 0.28125 0.8837888030432564
vt 0.296875 0.8836160032710714
vt 0.296875 0.9060914379946896
vn 0.7071067811865475 0 0.7071067811865476
vn 0.7071067811865476 0 0.7071067811865476
vn 0 1 0
vn 0 1 0
vn 1 0 0
vn 1 0 0
vn 0 1 0
vn 0 1 0
vn 0.7071067811865476 0 -0.7071067811865476
vn 0.7071067811865477 0 -0.7071067811865475
vn 0 1 0
vn 0 1 0
vn 3.5737539777452423e-16 0 -1
vn 1.9473210552940007e-16 0 -1
vn 0 1 0
vn 0 1 0
vn -0.7071067811865474 0 -0.7071067811865478
vn -0.7071067811865474 0 -0.7071067811865478
vn 0 1 0
vn 0 1 0
vn -1 0 -3.573753977745238e-16
vn -1 0 0
vn 0 1 0
vn 0 1 0
vn -0.7071067811865476 0 0.7071067811865475
vn -0.7071067811865479 0 0.7071067811865472
vn 0 1 0
vn 0 1 0
vn -1.7868769888726197e-16 0 1
vn -3.894642110587998e-16 0 1
vn 0 1 0
vn 0 1 0
usemtl m_0f83d3c9-1174-0541-a62a-7ab19b98a987
f 1/1/1 5/2/1 6/3/1 2/4/1
f 4/5/2 8/6/2 7/7/2 3/8/2
f 5/9/3 3/10/3 7/11/3 1/12/3
f 8/13/4 2/14/4 6/15/4 4/16/4
f 5/17/5 9/18/5 10/19/5 6/20/5
f 8/21/6 12/22/6 11/23/6 7/24/6
f 9/25/7 7/26/7 11/27/7 5/28/7
f 12/29/8 6/30/8 10/31/8 8/32/8
f 9/33/9 13/34/9 14/35/9 10/36/9
f 12/37/10 16/38/10 15/39/10 11/40/10
f 13/41/11 11/42/11 15/43/11 9/44/11
f 16/45/12 10/46/12 14/47/12 12/48/12
f 13/49/13 17/50/13 18/51/13 14/52/13
f 16/53/14 20/54/14 19/55/14 15/56/14
f 17/57/15 15/58/15 19/59/15 13/60/15
f 20/61/16 14/62/16 18/63/16 16/64/16
f 17/65/17 21/66/17 22/67/17 18/68/17
f 20/69/18 24/70/18 23/71/18 19/72/18
f 21/73/19 19/74/19 23/75/19 17/76/19
f 24/77/20 18/78/20 22/79/20 20/80/20
f 21/81/21 25/82/21 26/83/21 22/84/21
f 24/85/22 28/86/22 27/87/22 23/88/22
f 25/89/23 23/90/23 27/91/23 21/92/23
f 28/93/24 22/94/24 26/95/24 24/96/24
f 25/97/25 29/98/25 30/99/25 26/100/25
f 28/101/26 32/102/26 31/103/26 27/104/26
f 29/105/27 27/106/27 31/107/27 25/108/27
f 32/109/28 26/110/28 30/111/28 28/112/28
f 29/113/29 1/114/29 2/115/29 30/116/29
f 32/117/30 4/118/30 3/119/30 31/120/30
f 1/121/31 31/122/31 3/123/31 29/124/31
f 4/125/32 30/126/32 2/127/32 32/128/32
o tube
v 0.4569162607362388 0 0.04687499999999999
v 0.4569162607362388 1.0625 0.04687499999999999
v 0.4196834877072707 0 -0.043012865611294034
v 0.4196834877072707 1.0625 -0.043012865611294034
v 0.484375 0 0.01941626073623883
v 0.484375 1.0625 0.01941626073623883
v 0.394487134388706 0 -0.0178165122927293
v 0.394487134388706 1.0625 -0.0178165122927293
v 0.484375 0 -0.01941626073623883
v 0.484375 1.0625 -0.01941626073623883
v 0.394487134388706 0 0.017816512292729292
v 0.394487134388706 1.0625 0.017816512292729292
v 0.4569162607362388 0 -0.046875
v 0.4569162607362388 1.0625 -0.046875
v 0.4196834877072707 0 0.04301286561129403
v 0.4196834877072707 1.0625 0.04301286561129403
v 0.4180837392637612 0 -0.04687500000000001
v 0.4180837392637612 1.0625 -0.04687500000000001
v 0.4553165122927293 0 0.043012865611294034
v 0.4553165122927293 1.0625 0.043012865611294034
v 0.390625 0 -0.019416260736238863
v 0.390625 1.0625 -0.019416260736238863
v 0.480512865611294 0 0.01781651229272932
v 0.480512865611294 1.0625 0.01781651229272932
v 0.390625 0 0.019416260736238842
v 0.390625 1.0625 0.019416260736238842
v 0.480512865611294 0 -0.017816512292729306
v 0.480512865611294 1.0625 -0.017816512292729306
v 0.41808373926376113 0 0.046874999999999986
v 0.41808373926376113 1.0625 0.046874999999999986
v 0.45531651229272935 0 -0.04301286561129402
v 0.45531651229272935 1.0625 -0.04301286561129402
vt 0 0.734375
vt 0.015625 0.734375
vt 0.015625 1
vt 0 1
vt 0.03125 1
vt 0.015625 1
vt 0.015625 0.734375
vt 0.03125 0.734375
vt 0.16891535663236193 0.6962879379634863
vt 0.16811556874212064 0.71875
vt 0.15920964336763807 0.7185914972966783
vt 0.15920964336763807 0.6961152010804073
vt 0.2842096433676381 0.8279664972966784
vt 0.2842096433676381 0.8054902010804073
vt 0.2939153566323619 0.8056629379634864
vt 0.29311556874212064 0.828125
vt 0 0.734375
vt 0.015625 0.734375
vt 0.015625 1
vt 0 1
vt 0.03125 1
vt 0.015625 1
vt 0.015625 0.734375
vt 0.03125 0.734375
vt 0.3081919983644643 0.875
vt 0.2857165636408461 0.875
vt 0.2855580016355357 0.8660920360922881
vt 0.30801919859227933 0.8652921627985757
vt 0.2855580016355357 0.8660920360922881
vt 0.30801919859227933 0.8652921627985757
vt 0.3081919983644643 0.875
vt 0.2857165636408461 0.875
vt 0 0.734375
vt 0.015625 0.734375
vt 0.015625 1
vt 0 1
vt 0.03125 1
vt 0.015625 1
vt 0.015625 0.734375
vt 0.03125 0.734375
vt 0.05801966257671723 0.90625
vt 0.03555760054020362 0.9054502121097587
vt 0.03571610324352528 0.890625
vt 0.05819239945979638 0.890625
vt 0.12946610324352528 0.953125
vt 0.15194239945979637 0.953125
vt 0.15176966257671723 0.96875
vt 0.12930760054020363 0.9679502121097587
vt 0 0.734375
vt 0.015625 0.734375
vt 0.015625 1
vt 0 1
vt 0.03125 1
vt 0.015625 1
vt 0.015625 0.734375
vt 0.03125 0.734375
vt 0.28420858139928784 0.859375
vt 0.28420858139928784 0.8368995652763818
vt 0.2931165453069997 0.8367410032710714
vt 0.29391641860071216 0.859202200227815
vt 0.2931165453069997 0.8367410032710714
vt 0.29391641860071216 0.859202200227815
vt 0.28420858139928784 0.859375
vt 0.28420858139928784 0.8368995652763818
vt 0 0.734375
vt 0.015625 0.734375
vt 0.015625 1
vt 0 1
vt 0.03125 1
vt 0.015625 1
vt 0.015625 0.734375
vt 0.03125 0.734375
vt 0.28125 0.9685772631169208
vt 0.28204978789024127 0.9461152010804073
vt 0.296875 0.9462737037837289
vt 0.296875 0.96875
vt 0.296875 0.9150237037837289
vt 0.296875 0.9375
vt 0.28125 0.9373272631169208
vt 0.28204978789024127 0.9148652010804073
vt 0 0.734375
vt 0.015625 0.734375
vt 0.015625 1
vt 0 1
vt 0.03125 1
vt 0.015625 1
vt 0.015625 0.734375
vt 0.03125 0.734375
vt 0.12930800163553569 0.859375
vt 0.15178343635915392 0.859375
vt 0.15194199836446431 0.8742001267062876
vt 0.12948080140772067 0.875
vt 0.15194199836446431 0.8742001267062876
vt 0.12948080140772067 0.875
vt 0.12930800163553569 0.859375
vt 0.15178343635915392 0.859375
vt 0 0.734375
vt 0.015625 0.734375
vt 0.015625 1
vt 0 1
vt 0.03125 1
vt 0.015625 1
vt 0.015625 0.734375
vt 0.03125 0.734375
vt 0.2857303374232828 0.7871692867352762
vt 0.3081923994597964 0.7879690746255175
vt 0.30803389675647475 0.796875
vt 0.2855576005402036 0.796875
vt 0.30803389675647475 0.78125
vt 0.2855576005402036 0.78125
vt 0.2857303374232828 0.7715442867352762
vt 0.3081923994597964 0.7723440746255175
vt 0 0.734375
vt 0.015625 0.734375
vt 0.015625 1
vt 0 1
vt 0.03125 1
vt 0.015625 1
vt 0.015625 0.734375
vt 0.03125 0.734375
vt 0.296875 0.8836160032710714
vt 0.296875 0.9060914379946896
vt 0.28204987329371245 0.90625
vt 0.28125 0.8837888030432564
vt 0.28204987329371245 0.90625
vt 0.28125 0.8837888030432564
vt 0.296875 0.8836160032710714
vt 0.296875 0.9060914379946896
vn 0.7071067811865475 0 0.7071067811865476
vn 0.7071067811865476 0 0.7071067811865476
vn 0 1 0
vn 0 1 0
vn 1 0 0
vn 1 0 0
vn 0 1 0
vn 0 1 0
vn 0.7071067811865477 0 -0.7071067811865475
vn 0.7071067811865477 0 -0.7071067811865475
vn 0 1 0
vn 0 1 0
vn 1.7868769888726211e-16 0 -1
vn 1.9473210552940004e-16 0 -1
vn 0 1 0
vn 0 1 0
vn -0.7071067811865474 0 -0.7071067811865477
vn -0.7071067811865472 0 -0.7071067811865478
vn 0 1 0
vn 0 1 0
vn -1 0 -3.573753977745238e-16
vn -1 0 0
vn 0 1 0
vn 0 1 0
vn -0.7071067811865476 0 0.7071067811865475
vn -0.7071067811865477 0 0.7071067811865474
vn 0 1 0
vn 0 1 0
vn -1.7868769888726192e-16 0 1
vn -3.894642110587998e-16 0 1
vn 0 1 0
vn 0 1 0
usemtl m_0f83d3c9-1174-0541-a62a-7ab19b98a987
f 33/129/33 37/130/33 38/131/33 34/132/33
f 36/133/34 40/134/34 39/135/34 35/136/34
f 37/137/35 35/138/35 39/139/35 33/140/35
f 40/141/36 34/142/36 38/143/36 36/144/36
f 37/145/37 41/146/37 42/147/37 38/148/37
f 40/149/38 44/150/38 43/151/38 39/152/38
f 41/153/39 39/154/39 43/155/39 37/156/39
f 44/157/40 38/158/40 42/159/40 40/160/40
f 41/161/41 45/162/41 46/163/41 42/164/41
f 44/165/42 48/166/42 47/167/42 43/168/42
f 45/169/43 43/170/43 47/171/43 41/172/43
f 48/173/44 42/174/44 46/175/44 44/176/44
f 45/177/45 49/178/45 50/179/45 46/180/45
f 48/181/46 52/182/46 51/183/46 47/184/46
f 49/185/47 47/186/47 51/187/47 45/188/47
f 52/189/48 46/190/48 50/191/48 48/192/48
f 49/193/49 53/194/49 54/195/49 50/196/49
f 52/197/50 56/198/50 55/199/50 51/200/50
f 53/201/51 51/202/51 55/203/51 49/204/51
f 56/205/52 50/206/52 54/207/52 52/208/52
f 53/209/53 57/210/53 58/211/53 54/212/53
f 56/213/54 60/214/54 59/215/54 55/216/54
f 57/217/55 55/218/55 59/219/55 53/220/55
f 60/221/56 54/222/56 58/223/56 56/224/56
f 57/225/57 61/226/57 62/227/57 58/228/57
f 60/229/58 64/230/58 63/231/58 59/232/58
f 61/233/59 59/234/59 63/235/59 57/236/59
f 64/237/60 58/238/60 62/239/60 60/240/60
f 61/241/61 33/242/61 34/243/61 62/244/61
f 64/245/62 36/246/62 35/247/62 63/248/62
f 33/249/63 63/250/63 35/251/63 61/252/63
f 36/253/64 62/254/64 34/255/64 64/256/64
o mesh
v 0.25 1.1875 0.0625
v 0.25 1.1875 -0.0625
v 0.5 1.0625 0.0625
v 0.5 1.0625 -0.0625
v 0 1.1875 0.0625
v 0 1.1875 -0.0625
v 0 1.0625 0.0625
v 0 1.0625 -0.0625
vt 0.09787421874999999 1
vt 0.09787421874999999 0.96875
vt 0.16775078125 0.96875
vt 0.16775078125 1
vt 0.296875 0.71875
vt 0.296875 0.75
vt 0.265625 0.75
vt 0.265625 0.71875
vt 0.03537421874999999 0.96875
vt 0.09787421874999999 0.96875
vt 0.09787421874999999 1
vt 0.03537421874999999 1
vt 0.09787421874999999 0.96875
vt 0.09787421874999999 1
vt 0.03537421874999999 1
vt 0.03537421874999999 0.96875
vt 0.15625 0.9375
vt 0.09375 0.96875
vt 0.03125 0.96875
vt 0.03125 0.9375
vt 0.15625 0.9375
vt 0.09375 0.9375
vt 0.03125 0.90625
vt 0.15625 0.90625
vn 0.44721359549995804 0.8944271909999161 0
vn -1 0 0
vn 0 1 0
vn 0 -1 0
vn 0 0 1
vn 0 0 -1
usemtl m_0f83d3c9-1174-0541-a62a-7ab19b98a987
f 66/257/65 65/258/65 67/259/65 68/260/65
f 71/261/66 69/262/66 70/263/66 72/264/66
f 69/265/67 65/266/67 66/267/67 70/268/67
f 68/269/68 67/270/68 71/271/68 72/272/68
f 67/273/69 65/274/69 69/275/69 71/276/69
f 70/277/70 66/278/70 68/279/70 72/280/70
o mesh
v 0 1.1875 0.0625
v 0 1.1875 -0.0625
v 0 1.0625 0.0625
v 0 1.0625 -0.0625
v -0.25 1.1875 0.0625
v -0.25 1.1875 -0.0625
v -0.5 1.0625 0.0625
v -0.5 1.0625 -0.0625
vt 0.3125 1
vt 0.28125 1
vt 0.28125 0.96875
vt 0.3125 0.96875
vt 0.16775078125 1
vt 0.09787421874999999 1
vt 0.09787421874999999 0.96875
vt 0.16775078125 0.96875
vt 0.03537421874999999 0.96875
vt 0.09787421874999999 0.96875
vt 0.09787421874999999 1
vt 0.03537421874999999 1
vt 0.09787421874999999 0.96875
vt 0.09787421874999999 1
vt 0.03537421874999999 1
vt 0.03537421874999999 0.96875
vt 0.15625 0.875
vt 0.15625 0.90625
vt 0.09375 0.90625
vt 0.03125 0.875
vt 0.09375 0.875
vt 0.03125 0.875
vt 0.03125 0.84375
vt 0.15625 0.84375
vn 1 0 0
vn -0.44721359549995804 0.8944271909999161 0
vn 0 1 0
vn 0 -1 0
vn 0 0 1
vn 0 0 -1
usemtl m_0f83d3c9-1174-0541-a62a-7ab19b98a987
f 74/281/71 73/282/71 75/283/71 76/284/71
f 79/285/72 77/286/72 78/287/72 80/288/72
f 77/289/73 73/290/73 74/291/73 78/292/73
f 76/293/74 75/294/74 79/295/74 80/296/74
f 75/297/75 73/298/75 77/299/75 79/300/75
f 78/301/76 74/302/76 76/303/76 80/304/76
o mesh
v 0.09375 1 0.015625
v 0.09375 1 -0.015625
v 0.09375 0 0.015625
v 0.09375 0 -0.015625
v 0.03125 1 0.015625
v 0.03125 1 -0.015625
v 0.03125 0 0.015625
v 0.03125 0 -0.015625
vt 0.046875 0.84375
vt 0.03125 0.84375
vt 0.03125 0.59375
vt 0.046875 0.59375
vt 0.171875 0.71875
vt 0.171875 0.96875
vt 0.15625 0.96875
vt 0.15625 0.71875
vt 0.03537421874999999 0.96875
vt 0.09787421874999999 0.96875
vt 0.09787421874999999 1
vt 0.03537421874999999 1
vt 0.09787421874999999 0.96875
vt 0.09787421874999999 1
vt 0.03537421874999999 1
vt 0.03537421874999999 0.96875
vt 0.0625 0.59375
vt 0.0625 0.84375
vt 0.046875 0.84375
vt 0.046875 0.59375
vt 0.078125 0.84375
vt 0.0625 0.84375
vt 0.0625 0.59375
vt 0.078125 0.59375
vn 1 0 0
vn -1 0 0
vn 0 1 0
vn 0 -1 0
vn 0 0 1
vn 0 0 -1
usemtl m_0f83d3c9-1174-0541-a62a-7ab19b98a987
f 82/305/77 81/306/77 83/307/77 84/308/77
f 87/309/78 85/310/78 86/311/78 88/312/78
f 85/313/79 81/314/79 82/315/79 86/316/79
f 84/317/80 83/318/80 87/319/80 88/320/80
f 83/321/81 81/322/81 85/323/81 87/324/81
f 86/325/82 82/326/82 84/327/82 88/328/82
o mesh
v 0.21875 1 0.015625
v 0.21875 1 -0.015625
v 0.21875 0 0.015625
v 0.21875 0 -0.015625
v 0.15625 1 0.015625
v 0.15625 1 -0.015625
v 0.15625 0 0.015625
v 0.15625 0 -0.015625
vt 0.09375 0.84375
vt 0.078125 0.84375
vt 0.078125 0.59375
vt 0.09375 0.59375
vt 0.109375 0.59375
vt 0.109375 0.84375
vt 0.09375 0.84375
vt 0.09375 0.59375
vt 0.03537421874999999 0.96875
vt 0.09787421874999999 0.96875
vt 0.09787421874999999 1
vt 0.03537421874999999 1
vt 0.09787421874999999 0.96875
vt 0.09787421874999999 1
vt 0.03537421874999999 1
vt 0.03537421874999999 0.96875
vt 0.125 0.59375
vt 0.125 0.84375
vt 0.109375 0.84375
vt 0.109375 0.59375
vt 0.140625 0.84375
vt 0.125 0.84375
vt 0.125 0.59375
vt 0.140625 0.59375
vn 1 0 0
vn -1 0 0
vn 0 1 0
vn 0 -1 0
vn 0 0 1
vn 0 0 -1
usemtl m_0f83d3c9-1174-0541-a62a-7ab19b98a987
f 90/329/83 89/330/83 91/331/83 92/332/83
f 95/333/84 93/334/84 94/335/84 96/336/84
f 93/337/85 89/338/85 90/339/85 94/340/85
f 92/341/86 91/342/86 95/343/86 96/344/86
f 91/345/87 89/346/87 93/347/87 95/348/87
f 94/349/88 90/350/88 92/351/88 96/352/88
o mesh
v 0.34375 1 0.015625
v 0.34375 1 -0.015625
v 0.34375 0 0.015625
v 0.34375 0 -0.015625
v 0.28125 1 0.015625
v 0.28125 1 -0.015625
v 0.28125 0 0.015625
v 0.28125 0 -0.015625
vt 0.15625 0.84375
vt 0.140625 0.84375
vt 0.140625 0.59375
vt 0.15625 0.59375
vt 0.1875 0.75
vt 0.1875 1
vt 0.171875 1
vt 0.171875 0.75
vt 0.03537421874999999 0.96875
vt 0.09787421874999999 0.96875
vt 0.09787421874999999 1
vt 0.03537421874999999 1
vt 0.09787421874999999 0.96875
vt 0.09787421874999999 1
vt 0.03537421874999999 1
vt 0.03537421874999999 0.96875
vt 0.203125 0.75
vt 0.203125 1
vt 0.1875 1
vt 0.1875 0.75
vt 0.21875 1
vt 0.203125 1
vt 0.203125 0.75
vt 0.21875 0.75
vn 1 0 0
vn -1 0 0
vn 0 1 0
vn 0 -1 0
vn 0 0 1
vn 0 0 -1
usemtl m_0f83d3c9-1174-0541-a62a-7ab19b98a987
f 98/353/89 97/354/89 99/355/89 100/356/89
f 103/357/90 101/358/90 102/359/90 104/360/90
f 101/361/91 97/362/91 98/363/91 102/364/91
f 100/365/92 99/366/92 103/367/92 104/368/92
f 99/369/93 97/370/93 101/371/93 103/372/93
f 102/373/94 98/374/94 100/375/94 104/376/94
o mesh
v 0.40625 1.03125 0.0625
v 0.40625 1.03125 -0.0625
v 0.40625 1 0.0625
v 0.40625 1 -0.0625
v 0 1.03125 0.0625
v 0 1.03125 -0.0625
v 0 1 0.0625
v 0 1 -0.0625
vt 0.0625 0.9375
vt 0.03125 0.9375
vt 0.03125 0.921875
vt 0.03125 0.9375
vt 0.0625 0.921875
vt 0.0625 0.9375
vt 0.03125 0.9375
vt 0.03125 0.921875
vt 0.03537421874999999 0.96875
vt 0.09787421874999999 0.96875
vt 0.09787421874999999 1
vt 0.03537421874999999 1
vt 0.09787421874999999 0.96875
vt 0.09787421874999999 1
vt 0.03537421874999999 1
vt 0.03537421874999999 0.96875
vt 0.0625 0.921875
vt 0.0625 0.9375
vt 0.03125 0.9375
vt 0.03125 0.921875
vt 0.0625 0.9375
vt 0.03125 0.9375
vt 0.03125 0.921875
vt 0.0625 0.921875
vn 1 0 0
vn -1 0 0
vn 0 1 0
vn 0 -1 0
vn 0 0 1
vn 0 0 -1
usemtl m_0f83d3c9-1174-0541-a62a-7ab19b98a987
f 106/377/95 105/378/95 107/379/95 108/380/95
f 111/381/96 109/382/96 110/383/96 112/384/96
f 109/385/97 105/386/97 106/387/97 110/388/97
f 108/389/98 107/390/98 111/391/98 112/392/98
f 107/393/99 105/394/99 109/395/99 111/396/99
f 110/397/100 106/398/100 108/399/100 112/400/100
o mesh
v 0 1.03125 0.0625
v 0 1.03125 -0.0625
v 0 1 0.0625
v 0 1 -0.0625
v -0.40625 1.03125 0.0625
v -0.40625 1.03125 -0.0625
v -0.40625 1 0.0625
v -0.40625 1 -0.0625
vt 0.0625 0.9375
vt 0.03125 0.9375
vt 0.03125 0.921875
vt 0.0625 0.921875
vt 0.0625 0.921875
vt 0.0625 0.9375
vt 0.03125 0.9375
vt 0.03125 0.921875
vt 0.03537421874999999 0.96875
vt 0.09787421874999999 0.96875
vt 0.09787421874999999 1
vt 0.03537421874999999 1
vt 0.09787421874999999 0.96875
vt 0.09787421874999999 1
vt 0.03537421874999999 1
vt 0.03537421874999999 0.96875
vt 0.0625 0.921875
vt 0.0625 0.9375
vt 0.03125 0.9375
vt 0.03125 0.921875
vt 0.0625 0.9375
vt 0.03125 0.9375
vt 0.03125 0.921875
vt 0.0625 0.921875
vn 1 0 0
vn -1 0 0
vn 0 1 0
vn 0 -1 0
vn 0 0 1
vn 0 0 -1
usemtl m_0f83d3c9-1174-0541-a62a-7ab19b98a987
f 114/401/101 113/402/101 115/403/101 116/404/101
f 119/405/102 117/406/102 118/407/102 120/408/102
f 117/409/103 113/410/103 114/411/103 118/412/103
f 116/413/104 115/414/104 119/415/104 120/416/104
f 115/417/105 113/418/105 117/419/105 119/420/105
f 118/421/106 114/422/106 116/423/106 120/424/106
o mesh
v -0.28125 1 0.015625
v -0.28125 1 -0.015625
v -0.28125 0 0.015625
v -0.28125 0 -0.015625
v -0.34375 1 0.015625
v -0.34375 1 -0.015625
v -0.34375 0 0.015625
v -0.34375 0 -0.015625
vt 0.234375 1
vt 0.21875 1
vt 0.21875 0.75
vt 0.234375 0.75
vt 0.25 0.75
vt 0.25 1
vt 0.234375 1
vt 0.234375 0.75
vt 0.03537421874999999 0.96875
vt 0.09787421874999999 0.96875
vt 0.09787421874999999 1
vt 0.03537421874999999 1
vt 0.09787421874999999 0.96875
vt 0.09787421874999999 1
vt 0.03537421874999999 1
vt 0.03537421874999999 0.96875
vt 0.265625 0.75
vt 0.265625 1
vt 0.25 1
vt 0.25 0.75
vt 0.1875 0.75
vt 0.171875 0.75
vt 0.171875 0.5
vt 0.1875 0.5
vn 1 0 0
vn -1 0 0
vn 0 1 0
vn 0 -1 0
vn 0 0 1
vn 0 0 -1
usemtl m_0f83d3c9-1174-0541-a62a-7ab19b98a987
f 122/425/107 121/426/107 123/427/107 124/428/107
f 127/429/108 125/430/108 126/431/108 128/432/108
f 125/433/109 121/434/109 122/435/109 126/436/109
f 124/437/110 123/438/110 127/439/110 128/440/110
f 123/441/111 121/442/111 125/443/111 127/444/111
f 126/445/112 122/446/112 124/447/112 128/448/112
o mesh
v -0.15625 1 0.015625
v -0.15625 1 -0.015625
v -0.15625 0 0.015625
v -0.15625 0 -0.015625
v -0.21875 1 0.015625
v -0.21875 1 -0.015625
v -0.21875 0 0.015625
v -0.21875 0 -0.015625
vt 0.203125 0.75
vt 0.1875 0.75
vt 0.1875 0.5
vt 0.203125 0.5
vt 0.21875 0.5
vt 0.21875 0.75
vt 0.203125 0.75
vt 0.203125 0.5
vt 0.03537421874999999 0.96875
vt 0.09787421874999999 0.96875
vt 0.09787421874999999 1
vt 0.03537421874999999 1
vt 0.09787421874999999 0.96875
vt 0.09787421874999999 1
vt 0.03537421874999999 1
vt 0.03537421874999999 0.96875
vt 0.234375 0.5
vt 0.234375 0.75
vt 0.21875 0.75
vt 0.21875 0.5
vt 0.25 0.75
vt 0.234375 0.75
vt 0.234375 0.5
vt 0.25 0.5
vn 1 0 0
vn -1 0 0
vn 0 1 0
vn 0 -1 0
vn 0 0 1
vn 0 0 -1
usemtl m_0f83d3c9-1174-0541-a62a-7ab19b98a987
f 130/449/113 129/450/113 131/451/113 132/452/113
f 135/453/114 133/454/114 134/455/114 136/456/114
f 133/457/115 129/458/115 130/459/115 134/460/115
f 132/461/116 131/462/116 135/463/116 136/464/116
f 131/465/117 129/466/117 133/467/117 135/468/117
f 134/469/118 130/470/118 132/471/118 136/472/118
o mesh
v -0.03125 1 0.015625
v -0.03125 1 -0.015625
v -0.03125 0 0.015625
v -0.03125 0 -0.015625
v -0.09375 1 0.015625
v -0.09375 1 -0.015625
v -0.09375 0 0.015625
v -0.09375 0 -0.015625
vt 0.265625 0.75
vt 0.25 0.75
vt 0.25 0.5
vt 0.265625 0.5
vt 0.015625 0.484375
vt 0.015625 0.734375
vt 0 0.734375
vt 0 0.484375
vt 0.03537421874999999 0.96875
vt 0.09787421874999999 0.96875
vt 0.09787421874999999 1
vt 0.03537421874999999 1
vt 0.09787421874999999 0.96875
vt 0.09787421874999999 1
vt 0.03537421874999999 1
vt 0.03537421874999999 0.96875
vt 0.28125 0.75
vt 0.28125 1
vt 0.265625 1
vt 0.265625 0.75
vt 0.03125 0.734375
vt 0.015625 0.734375
vt 0.015625 0.484375
vt 0.03125 0.484375
vn 1 0 0
vn -1 0 0
vn 0 1 0
vn 0 -1 0
vn 0 0 1
vn 0 0 -1
usemtl m_0f83d3c9-1174-0541-a62a-7ab19b98a987
f 138/473/119 137/474/119 139/475/119 140/476/119
f 143/477/120 141/478/120 142/479/120 144/480/120
f 141/481/121 137/482/121 138/483/121 142/484/121
f 140/485/122 139/486/122 143/487/122 144/488/122
f 139/489/123 137/490/123 141/491/123 143/492/123
f 142/493/124 138/494/124 140/495/124 144/496/124