# Made in Blockbench 5.1.6
mtllib ParkRailingFence.mtl

o mesh
v -0.296875 0.375 0.015625
v -0.296875 0.375 -0.015625
v -0.296875 0 0.015625
v -0.296875 0 -0.015625
v -0.328125 0.375 0.015625
v -0.328125 0.375 -0.015625
v -0.328125 0 0.015625
v -0.328125 0 -0.015625
vt 0.9375 1
vt 0.875 1
vt 0.875 0
vt 0.9375 0
vt 1 0
vt 1 1
vt 0.9375 1
vt 0.9375 0
vt 0.14149687499999997 0.875
vt 0.39149687499999997 0.875
vt 0.39149687499999997 1
vt 0.14149687499999997 1
vt 0.39149687499999997 0.875
vt 0.39149687499999997 1
vt 0.14149687499999997 1
vt 0.14149687499999997 0.875
vt 1.0625 0
vt 1.0625 1
vt 1 1
vt 1 0
vt 0.75 0
vt 0.6875 0
vt 0.6875 -1
vt 0.75 -1
vn 1 0 0
vn -1 0 0
vn 0 1 0
vn 0 -1 0
vn 0 0 1
vn 0 0 -1
usemtl none
f 2/1/1 1/2/1 3/3/1 4/4/1
f 7/5/2 5/6/2 6/7/2 8/8/2
f 5/9/3 1/10/3 2/11/3 6/12/3
f 4/13/4 3/14/4 7/15/4 8/16/4
f 3/17/5 1/18/5 5/19/5 7/20/5
f 6/21/6 2/22/6 4/23/6 8/24/6
o mesh
v -0.171875 0.375 0.015625
v -0.171875 0.375 -0.015625
v -0.171875 0 0.015625
v -0.171875 0 -0.015625
v -0.203125 0.375 0.015625
v -0.203125 0.375 -0.015625
v -0.203125 0 0.015625
v -0.203125 0 -0.015625
vt 0.8125 0
vt 0.75 0
vt 0.75 -1
vt 0.8125 -1
vt 0.875 -1
vt 0.875 0
vt 0.8125 0
vt 0.8125 -1
vt 0.14149687499999997 0.875
vt 0.39149687499999997 0.875
vt 0.39149687499999997 1
vt 0.14149687499999997 1
vt 0.39149687499999997 0.875
vt 0.39149687499999997 1
vt 0.14149687499999997 1
vt 0.14149687499999997 0.875
vt 0.9375 -1
vt 0.9375 0
vt 0.875 0
vt 0.875 -1
vt 1 0
vt 0.9375 0
vt 0.9375 -1
vt 1 -1
vn 1 0 0
vn -1 0 0
vn 0 1 0
vn 0 -1 0
vn 0 0 1
vn 0 0 -1
usemtl none
f 10/25/7 9/26/7 11/27/7 12/28/7
f 15/29/8 13/30/8 14/31/8 16/32/8
f 13/33/9 9/34/9 10/35/9 14/36/9
f 12/37/10 11/38/10 15/39/10 16/40/10
f 11/41/11 9/42/11 13/43/11 15/44/11
f 14/45/12 10/46/12 12/47/12 16/48/12
o mesh
v -0.046875 0.375 0.015625
v -0.046875 0.375 -0.015625
v -0.046875 0 0.015625
v -0.046875 0 -0.015625
v -0.078125 0.375 0.015625
v -0.078125 0.375 -0.015625
v -0.078125 0 0.015625
v -0.078125 0 -0.015625
vt 1.0625 0
vt 1 0
vt 1 -1
vt 1.0625 -1
vt 0.0625 -1.0625
vt 0.0625 -0.0625
vt 0 -0.0625
vt 0 -1.0625
vt 0.14149687499999997 0.875
vt 0.39149687499999997 0.875
vt 0.39149687499999997 1
vt 0.14149687499999997 1
vt 0.39149687499999997 0.875
vt 0.39149687499999997 1
vt 0.14149687499999997 1
vt 0.14149687499999997 0.875
vt 1.125 0
vt 1.125 1
vt 1.0625 1
vt 1.0625 0
vt 0.125 -0.0625
vt 0.0625 -0.0625
vt 0.0625 -1.0625
vt 0.125 -1.0625
vn 1 0 0
vn -1 0 0
vn 0 1 0
vn 0 -1 0
vn 0 0 1
vn 0 0 -1
usemtl none
f 18/49/13 17/50/13 19/51/13 20/52/13
f 23/53/14 21/54/14 22/55/14 24/56/14
f 21/57/15 17/58/15 18/59/15 22/60/15
f 20/61/16 19/62/16 23/63/16 24/64/16
f 19/65/17 17/66/17 21/67/17 23/68/17
f 22/69/18 18/70/18 20/71/18 24/72/18
o mesh
v 0.078125 0.375 0.015625
v 0.078125 0.375 -0.015625
v 0.078125 0 0.015625
v 0.078125 0 -0.015625
v 0.046875 0.375 0.015625
v 0.046875 0.375 -0.015625
v 0.046875 0 0.015625
v 0.046875 0 -0.015625
vt 0.1875 0.375
vt 0.125 0.375
vt 0.125 -0.625
vt 0.1875 -0.625
vt 0.6875 -0.125
vt 0.6875 0.875
vt 0.625 0.875
vt 0.625 -0.125
vt 0.14149687499999997 0.875
vt 0.39149687499999997 0.875
vt 0.39149687499999997 1
vt 0.14149687499999997 1
vt 0.39149687499999997 0.875
vt 0.39149687499999997 1
vt 0.14149687499999997 1
vt 0.14149687499999997 0.875
vt 0.25 -0.625
vt 0.25 0.375
vt 0.1875 0.375
vt 0.1875 -0.625
vt 0.3125 0.375
vt 0.25 0.375
vt 0.25 -0.625
vt 0.3125 -0.625
vn 1 0 0
vn -1 0 0
vn 0 1 0
vn 0 -1 0
vn 0 0 1
vn 0 0 -1
usemtl none
f 26/73/19 25/74/19 27/75/19 28/76/19
f 31/77/20 29/78/20 30/79/20 32/80/20
f 29/81/21 25/82/21 26/83/21 30/84/21
f 28/85/22 27/86/22 31/87/22 32/88/22
f 27/89/23 25/90/23 29/91/23 31/92/23
f 30/93/24 26/94/24 28/95/24 32/96/24
o mesh
v 0.203125 0.375 0.015625
v 0.203125 0.375 -0.015625
v 0.203125 0 0.015625
v 0.203125 0 -0.015625
v 0.171875 0.375 0.015625
v 0.171875 0.375 -0.015625
v 0.171875 0 0.015625
v 0.171875 0 -0.015625
vt 0.375 0.375
vt 0.3125 0.375
vt 0.3125 -0.625
vt 0.375 -0.625
vt 0.4375 -0.625
vt 0.4375 0.375
vt 0.375 0.375
vt 0.375 -0.625
vt 0.14149687499999997 0.875
vt 0.39149687499999997 0.875
vt 0.39149687499999997 1
vt 0.14149687499999997 1
vt 0.39149687499999997 0.875
vt 0.39149687499999997 1
vt 0.14149687499999997 1
vt 0.14149687499999997 0.875
vt 0.5 -0.625
vt 0.5 0.375
vt 0.4375 0.375
vt 0.4375 -0.625
vt 0.5625 0.375
vt 0.5 0.375
vt 0.5 -0.625
vt 0.5625 -0.625
vn 1 0 0
vn -1 0 0
vn 0 1 0
vn 0 -1 0
vn 0 0 1
vn 0 0 -1
usemtl none
f 34/97/25 33/98/25 35/99/25 36/100/25
f 39/101/26 37/102/26 38/103/26 40/104/26
f 37/105/27 33/106/27 34/107/27 38/108/27
f 36/109/28 35/110/28 39/111/28 40/112/28
f 35/113/29 33/114/29 37/115/29 39/116/29
f 38/117/30 34/118/30 36/119/30 40/120/30
o mesh
v 0.328125 0.375 0.015625
v 0.328125 0.375 -0.015625
v 0.328125 0 0.015625
v 0.328125 0 -0.015625
v 0.296875 0.375 0.015625
v 0.296875 0.375 -0.015625
v 0.296875 0 0.015625
v 0.296875 0 -0.015625
vt 0.625 0.375
vt 0.5625 0.375
vt 0.5625 -0.625
vt 0.625 -0.625
vt 0.75 0
vt 0.75 1
vt 0.6875 1
vt 0.6875 0
vt 0.14149687499999997 0.875
vt 0.39149687499999997 0.875
vt 0.39149687499999997 1
vt 0.14149687499999997 1
vt 0.39149687499999997 0.875
vt 0.39149687499999997 1
vt 0.14149687499999997 1
vt 0.14149687499999997 0.875
vt 0.8125 0
vt 0.8125 1
vt 0.75 1
vt 0.75 0
vt 0.875 1
vt 0.8125 1
vt 0.8125 0
vt 0.875 0
vn 1 0 0
vn -1 0 0
vn 0 1 0
vn 0 -1 0
vn 0 0 1
vn 0 0 -1
usemtl none
f 42/121/31 41/122/31 43/123/31 44/124/31
f 47/125/32 45/126/32 46/127/32 48/128/32
f 45/129/33 41/130/33 42/131/33 46/132/33
f 44/133/34 43/134/34 47/135/34 48/136/34
f 43/137/35 41/138/35 45/139/35 47/140/35
f 46/141/36 42/142/36 44/143/36 48/144/36
o mesh
v 0.3203125 0.40625 0.0078125
v 0.3203125 0.40625 -0.0078125
v 0.3203125 0.375 0.0078125
v 0.3203125 0.375 -0.0078125
v 0.3046875 0.40625 0.0078125
v 0.3046875 0.40625 -0.0078125
v 0.3046875 0.375 0.0078125
v 0.3046875 0.375 -0.0078125
vt 0.375 0.375
vt 0.3125 0.375
vt 0.3125 -0.625
vt 0.375 -0.625
vt 0.4375 -0.625
vt 0.4375 0.375
vt 0.375 0.375
vt 0.375 -0.625
vt 0.14149687499999997 0.875
vt 0.39149687499999997 0.875
vt 0.39149687499999997 1
vt 0.14149687499999997 1
vt 0.39149687499999997 0.875
vt 0.39149687499999997 1
vt 0.14149687499999997 1
vt 0.14149687499999997 0.875
vt 0.5 -0.625
vt 0.5 0.375
vt 0.4375 0.375
vt 0.4375 -0.625
vt 0.5625 0.375
vt 0.5 0.375
vt 0.5 -0.625
vt 0.5625 -0.625
vn 1 0 0
vn -1 0 0
vn 0 1 0
vn 0 -1 0
vn 0 0 1
vn 0 0 -1
usemtl none
f 50/145/37 49/146/37 51/147/37 52/148/37
f 55/149/38 53/150/38 54/151/38 56/152/38
f 53/153/39 49/154/39 50/155/39 54/156/39
f 52/157/40 51/158/40 55/159/40 56/160/40
f 51/161/41 49/162/41 53/163/41 55/164/41
f 54/165/42 50/166/42 52/167/42 56/168/42
o mesh
v 0.1953125 0.40625 0.0078125
v 0.1953125 0.40625 -0.0078125
v 0.1953125 0.375 0.0078125
v 0.1953125 0.375 -0.0078125
v 0.1796875 0.40625 0.0078125
v 0.1796875 0.40625 -0.0078125
v 0.1796875 0.375 0.0078125
v 0.1796875 0.375 -0.0078125
vt 0.375 0.375
vt 0.3125 0.375
vt 0.3125 -0.625
vt 0.375 -0.625
vt 0.4375 -0.625
vt 0.4375 0.375
vt 0.375 0.375
vt 0.375 -0.625
vt 0.14149687499999997 0.875
vt 0.39149687499999997 0.875
vt 0.39149687499999997 1
vt 0.14149687499999997 1
vt 0.39149687499999997 0.875
vt 0.39149687499999997 1
vt 0.14149687499999997 1
vt 0.14149687499999997 0.875
vt 0.5 -0.625
vt 0.5 0.375
vt 0.4375 0.375
vt 0.4375 -0.625
vt 0.5625 0.375
vt 0.5 0.375
vt 0.5 -0.625
vt 0.5625 -0.625
vn 1 0 0
vn -1 0 0
vn 0 1 0
vn 0 -1 0
vn 0 0 1
vn 0 0 -1
usemtl none
f 58/169/43 57/170/43 59/171/43 60/172/43
f 63/173/44 61/174/44 62/175/44 64/176/44
f 61/177/45 57/178/45 58/179/45 62/180/45
f 60/181/46 59/182/46 63/183/46 64/184/46
f 59/185/47 57/186/47 61/187/47 63/188/47
f 62/189/48 58/190/48 60/191/48 64/192/48
o mesh
v 0.0703125 0.40625 0.0078125
v 0.0703125 0.40625 -0.0078125
v 0.0703125 0.375 0.0078125
v 0.0703125 0.375 -0.0078125
v 0.0546875 0.40625 0.0078125
v 0.0546875 0.40625 -0.0078125
v 0.0546875 0.375 0.0078125
v 0.0546875 0.375 -0.0078125
vt 0.375 0.375
vt 0.3125 0.375
vt 0.3125 -0.625
vt 0.375 -0.625
vt 0.4375 -0.625
vt 0.4375 0.375
vt 0.375 0.375
vt 0.375 -0.625
vt 0.14149687499999997 0.875
vt 0.39149687499999997 0.875
vt 0.39149687499999997 1
vt 0.14149687499999997 1
vt 0.39149687499999997 0.875
vt 0.39149687499999997 1
vt 0.14149687499999997 1
vt 0.14149687499999997 0.875
vt 0.5 -0.625
vt 0.5 0.375
vt 0.4375 0.375
vt 0.4375 -0.625
vt 0.5625 0.375
vt 0.5 0.375
vt 0.5 -0.625
vt 0.5625 -0.625
vn 1 0 0
vn -1 0 0
vn 0 1 0
vn 0 -1 0
vn 0 0 1
vn 0 0 -1
usemtl none
f 66/193/49 65/194/49 67/195/49 68/196/49
f 71/197/50 69/198/50 70/199/50 72/200/50
f 69/201/51 65/202/51 66/203/51 70/204/51
f 68/205/52 67/206/52 71/207/52 72/208/52
f 67/209/53 65/210/53 69/211/53 71/212/53
f 70/213/54 66/214/54 68/215/54 72/216/54
o mesh
v -0.0546875 0.40625 0.0078125
v -0.0546875 0.40625 -0.0078125
v -0.0546875 0.375 0.0078125
v -0.0546875 0.375 -0.0078125
v -0.0703125 0.40625 0.0078125
v -0.0703125 0.40625 -0.0078125
v -0.0703125 0.375 0.0078125
v -0.0703125 0.375 -0.0078125
vt 0.375 0.375
vt 0.3125 0.375
vt 0.3125 -0.625
vt 0.375 -0.625
vt 0.4375 -0.625
vt 0.4375 0.375
vt 0.375 0.375
vt 0.375 -0.625
vt 0.14149687499999997 0.875
vt 0.39149687499999997 0.875
vt 0.39149687499999997 1
vt 0.14149687499999997 1
vt 0.39149687499999997 0.875
vt 0.39149687499999997 1
vt 0.14149687499999997 1
vt 0.14149687499999997 0.875
vt 0.5 -0.625
vt 0.5 0.375
vt 0.4375 0.375
vt 0.4375 -0.625
vt 0.5625 0.375
vt 0.5 0.375
vt 0.5 -0.625
vt 0.5625 -0.625
vn 1 0 0
vn -1 0 0
vn 0 1 0
vn 0 -1 0
vn 0 0 1
vn 0 0 -1
usemtl none
f 74/217/55 73/218/55 75/219/55 76/220/55
f 79/221/56 77/222/56 78/223/56 80/224/56
f 77/225/57 73/226/57 74/227/57 78/228/57
f 76/229/58 75/230/58 79/231/58 80/232/58
f 75/233/59 73/234/59 77/235/59 79/236/59
f 78/237/60 74/238/60 76/239/60 80/240/60
o mesh
v -0.1796875 0.40625 0.0078125
v -0.1796875 0.40625 -0.0078125
v -0.1796875 0.375 0.0078125
v -0.1796875 0.375 -0.0078125
v -0.1953125 0.40625 0.0078125
v -0.1953125 0.40625 -0.0078125
v -0.1953125 0.375 0.0078125
v -0.1953125 0.375 -0.0078125
vt 0.375 0.375
vt 0.3125 0.375
vt 0.3125 -0.625
vt 0.375 -0.625
vt 0.4375 -0.625
vt 0.4375 0.375
vt 0.375 0.375
vt 0.375 -0.625
vt 0.14149687499999997 0.875
vt 0.39149687499999997 0.875
vt 0.39149687499999997 1
vt 0.14149687499999997 1
vt 0.39149687499999997 0.875
vt 0.39149687499999997 1
vt 0.14149687499999997 1
vt 0.14149687499999997 0.875
vt 0.5 -0.625
vt 0.5 0.375
vt 0.4375 0.375
vt 0.4375 -0.625
vt 0.5625 0.375
vt 0.5 0.375
vt 0.5 -0.625
vt 0.5625 -0.625
vn 1 0 0
vn -1 0 0
vn 0 1 0
vn 0 -1 0
vn 0 0 1
vn 0 0 -1
usemtl none
f 82/241/61 81/242/61 83/243/61 84/244/61
f 87/245/62 85/246/62 86/247/62 88/248/62
f 85/249/63 81/250/63 82/251/63 86/252/63
f 84/253/64 83/254/64 87/255/64 88/256/64
f 83/257/65 81/258/65 85/259/65 87/260/65
f 86/261/66 82/262/66 84/263/66 88/264/66
o mesh
v -0.3046875 0.40625 0.0078125
v -0.3046875 0.40625 -0.0078125
v -0.3046875 0.375 0.0078125
v -0.3046875 0.375 -0.0078125
v -0.3203125 0.40625 0.0078125
v -0.3203125 0.40625 -0.0078125
v -0.3203125 0.375 0.0078125
v -0.3203125 0.375 -0.0078125
vt 0.375 0.375
vt 0.3125 0.375
vt 0.3125 -0.625
vt 0.375 -0.625
vt 0.4375 -0.625
vt 0.4375 0.375
vt 0.375 0.375
vt 0.375 -0.625
vt 0.14149687499999997 0.875
vt 0.39149687499999997 0.875
vt 0.39149687499999997 1
vt 0.14149687499999997 1
vt 0.39149687499999997 0.875
vt 0.39149687499999997 1
vt 0.14149687499999997 1
vt 0.14149687499999997 0.875
vt 0.5 -0.625
vt 0.5 0.375
vt 0.4375 0.375
vt 0.4375 -0.625
vt 0.5625 0.375
vt 0.5 0.375
vt 0.5 -0.625
vt 0.5625 -0.625
vn 1 0 0
vn -1 0 0
vn 0 1 0
vn 0 -1 0
vn 0 0 1
vn 0 0 -1
usemtl none
f 90/265/67 89/266/67 91/267/67 92/268/67
f 95/269/68 93/270/68 94/271/68 96/272/68
f 93/273/69 89/274/69 90/275/69 94/276/69
f 92/277/70 91/278/70 95/279/70 96/280/70
f 91/281/71 89/282/71 93/283/71 95/284/71
f 94/285/72 90/286/72 92/287/72 96/288/72
o mesh
v 0.3120558261758408 0.5037912607362388 0.0078125
v 0.3120558261758408 0.5037912607362388 -0.0078125
v 0.3341529130879204 0.41919417382415924 0.0078125
v 0.3341529130879204 0.41919417382415924 -0.0078125
v 0.28995873926376114 0.41919417382415924 0.0078125
v 0.28995873926376114 0.41919417382415924 -0.0078125
v 0.31205582617584077 0.3970970869120796 0.0078125
v 0.31205582617584077 0.3970970869120796 -0.0078125
vt 0.125 1
vt 0 1
vt 0 0.875
vt 0.125 0.875
vt 0.125 0.875
vt 0.125 1
vt 0 1
vt 0 0.875
vt 0 0.875
vt 0.125 0.875
vt 0.125 1
vt 0 1
vt 0.125 0.875
vt 0.125 1
vt 0 1
vt 0 0.875
vt 0.125 0.875
vt 0.125 1
vt 0 1
vt 0 0.875
vt 0.125 1
vt 0 1
vt 0 0.875
vt 0.125 0.875
vn 0.9675382212353985 0.2527247325622118 0
vn -0.7071067811865475 -0.7071067811865476 0
vn -0.9675382212353985 0.25272473256221184 0
vn 0.7071067811865476 -0.7071067811865475 0
vn 0 0 1
vn 0 0 -1
usemtl none
f 98/289/73 97/290/73 99/291/73 100/292/73
f 103/293/74 101/294/74 102/295/74 104/296/74
f 101/297/75 97/298/75 98/299/75 102/300/75
f 100/301/76 99/302/76 103/303/76 104/304/76
f 99/305/77 97/306/77 101/307/77 103/308/77
f 102/309/78 98/310/78 100/311/78 104/312/78
o mesh
v 0.1870558261758408 0.5037912607362388 0.0078125
v 0.1870558261758408 0.5037912607362388 -0.0078125
v 0.2091529130879204 0.41919417382415924 0.0078125
v 0.2091529130879204 0.41919417382415924 -0.0078125
v 0.16495873926376117 0.41919417382415924 0.0078125
v 0.16495873926376117 0.41919417382415924 -0.0078125
v 0.1870558261758408 0.3970970869120796 0.0078125
v 0.1870558261758408 0.3970970869120796 -0.0078125
vt 0.125 1
vt 0 1
vt 0 0.875
vt 0.125 0.875
vt 0.125 0.875
vt 0.125 1
vt 0 1
vt 0 0.875
vt 0 0.875
vt 0.125 0.875
vt 0.125 1
vt 0 1
vt 0.125 0.875
vt 0.125 1
vt 0 1
vt 0 0.875
vt 0.125 0.875
vt 0.125 1
vt 0 1
vt 0 0.875
vt 0.125 1
vt 0 1
vt 0 0.875
vt 0.125 0.875
vn 0.9675382212353985 0.2527247325622118 0
vn -0.7071067811865475 -0.7071067811865476 0
vn -0.9675382212353985 0.25272473256221184 0
vn 0.7071067811865476 -0.7071067811865475 0
vn 0 0 1
vn 0 0 -1
usemtl none
f 106/313/79 105/314/79 107/315/79 108/316/79
f 111/317/80 109/318/80 110/319/80 112/320/80
f 109/321/81 105/322/81 106/323/81 110/324/81
f 108/325/82 107/326/82 111/327/82 112/328/82
f 107/329/83 105/330/83 109/331/83 111/332/83
f 110/333/84 106/334/84 108/335/84 112/336/84
o mesh
v 0.062055826175840795 0.5037912607362388 0.0078125
v 0.062055826175840795 0.5037912607362388 -0.0078125
v 0.08415291308792039 0.41919417382415924 0.0078125
v 0.08415291308792039 0.41919417382415924 -0.0078125
v 0.03995873926376117 0.41919417382415924 0.0078125
v 0.03995873926376117 0.41919417382415924 -0.0078125
v 0.06205582617584079 0.3970970869120796 0.0078125
v 0.06205582617584079 0.3970970869120796 -0.0078125
vt 0.125 1
vt 0 1
vt 0 0.875
vt 0.125 0.875
vt 0.125 0.875
vt 0.125 1
vt 0 1
vt 0 0.875
vt 0 0.875
vt 0.125 0.875
vt 0.125 1
vt 0 1
vt 0.125 0.875
vt 0.125 1
vt 0 1
vt 0 0.875
vt 0.125 0.875
vt 0.125 1
vt 0 1
vt 0 0.875
vt 0.125 1
vt 0 1
vt 0 0.875
vt 0.125 0.875
vn 0.9675382212353985 0.2527247325622118 0
vn -0.7071067811865475 -0.7071067811865476 0
vn -0.9675382212353985 0.25272473256221184 0
vn 0.7071067811865476 -0.7071067811865475 0
vn 0 0 1
vn 0 0 -1
usemtl none
f 114/337/85 113/338/85 115/339/85 116/340/85
f 119/341/86 117/342/86 118/343/86 120/344/86
f 117/345/87 113/346/87 114/347/87 118/348/87
f 116/349/88 115/350/88 119/351/88 120/352/88
f 115/353/89 113/354/89 117/355/89 119/356/89
f 118/357/90 114/358/90 116/359/90 120/360/90
o mesh
v -0.0629441738241592 0.5037912607362388 0.0078125
v -0.0629441738241592 0.5037912607362388 -0.0078125
v -0.040847086912079604 0.41919417382415924 0.0078125
v -0.040847086912079604 0.41919417382415924 -0.0078125
v -0.08504126073623883 0.41919417382415924 0.0078125
v -0.08504126073623883 0.41919417382415924 -0.0078125
v -0.0629441738241592 0.3970970869120796 0.0078125
v -0.0629441738241592 0.3970970869120796 -0.0078125
vt 0.125 1
vt 0 1
vt 0 0.875
vt 0.125 0.875
vt 0.125 0.875
vt 0.125 1
vt 0 1
vt 0 0.875
vt 0 0.875
vt 0.125 0.875
vt 0.125 1
vt 0 1
vt 0.125 0.875
vt 0.125 1
vt 0 1
vt 0 0.875
vt 0.125 0.875
vt 0.125 1
vt 0 1
vt 0 0.875
vt 0.125 1
vt 0 1
vt 0 0.875
vt 0.125 0.875
vn 0.9675382212353985 0.2527247325622118 0
vn -0.7071067811865475 -0.7071067811865476 0
vn -0.9675382212353985 0.25272473256221184 0
vn 0.7071067811865476 -0.7071067811865475 0
vn 0 0 1
vn 0 0 -1
usemtl none
f 122/361/91 121/362/91 123/363/91 124/364/91
f 127/365/92 125/366/92 126/367/92 128/368/92
f 125/369/93 121/370/93 122/371/93 126/372/93
f 124/373/94 123/374/94 127/375/94 128/376/94
f 123/377/95 121/378/95 125/379/95 127/380/95
f 126/381/96 122/382/96 124/383/96 128/384/96
o mesh
v -0.1879441738241592 0.5037912607362388 0.0078125
v -0.1879441738241592 0.5037912607362388 -0.0078125
v -0.1658470869120796 0.41919417382415924 0.0078125
v -0.1658470869120796 0.41919417382415924 -0.0078125
v -0.21004126073623883 0.41919417382415924 0.0078125
v -0.21004126073623883 0.41919417382415924 -0.0078125
v -0.1879441738241592 0.3970970869120796 0.0078125
v -0.1879441738241592 0.3970970869120796 -0.0078125
vt 0.125 1
vt 0 1
vt 0 0.875
vt 0.125 0.875
vt 0.125 0.875
vt 0.125 1
vt 0 1
vt 0 0.875
vt 0 0.875
vt 0.125 0.875
vt 0.125 1
vt 0 1
vt 0.125 0.875
vt 0.125 1
vt 0 1
vt 0 0.875
vt 0.125 0.875
vt 0.125 1
vt 0 1
vt 0 0.875
vt 0.125 1
vt 0 1
vt 0 0.875
vt 0.125 0.875
vn 0.9675382212353985 0.2527247325622118 0
vn -0.7071067811865475 -0.7071067811865476 0
vn -0.9675382212353985 0.25272473256221184 0
vn 0.7071067811865476 -0.7071067811865475 0
vn 0 0 1
vn 0 0 -1
usemtl none
f 130/385/97 129/386/97 131/387/97 132/388/97
f 135/389/98 133/390/98 134/391/98 136/392/98
f 133/393/99 129/394/99 130/395/99 134/396/99
f 132/397/100 131/398/100 135/399/100 136/400/100
f 131/401/101 129/402/101 133/403/101 135/404/101
f 134/405/102 130/406/102 132/407/102 136/408/102
o mesh
v -0.3129441738241592 0.5037912607362388 0.0078125
v -0.3129441738241592 0.5037912607362388 -0.0078125
v -0.2908470869120796 0.41919417382415924 0.0078125
v -0.2908470869120796 0.41919417382415924 -0.0078125
v -0.33504126073623886 0.41919417382415924 0.0078125
v -0.33504126073623886 0.41919417382415924 -0.0078125
v -0.31294417382415923 0.3970970869120796 0.0078125
v -0.31294417382415923 0.3970970869120796 -0.0078125
vt 0.125 1
vt 0 1
vt 0 0.875
vt 0.125 0.875
vt 0.125 0.875
vt 0.125 1
vt 0 1
vt 0 0.875
vt 0 0.875
vt 0.125 0.875
vt 0.125 1
vt 0 1
vt 0.125 0.875
vt 0.125 1
vt 0 1
vt 0 0.875
vt 0.125 0.875
vt 0.125 1
vt 0 1
vt 0 0.875
vt 0.125 1
vt 0 1
vt 0 0.875
vt 0.125 0.875
vn 0.9675382212353985 0.2527247325622118 0
vn -0.7071067811865475 -0.7071067811865476 0
vn -0.9675382212353985 0.25272473256221184 0
vn 0.7071067811865476 -0.7071067811865475 0
vn 0 0 1
vn 0 0 -1
usemtl none
f 138/409/103 137/410/103 139/411/103 140/412/103
f 143/413/104 141/414/104 142/415/104 144/416/104
f 141/417/105 137/418/105 138/419/105 142/420/105
f 140/421/106 139/422/106 143/423/106 144/424/106
f 139/425/107 137/426/107 141/427/107 143/428/107
f 142/429/108 138/430/108 140/431/108 144/432/108
o mesh
v 0.375 0.265625 0.015625
v 0.375 0.265625 -0.015625
v 0.375 0.234375 0.015625
v 0.375 0.234375 -0.015625
v -0.375 0.265625 0.015625
v -0.375 0.265625 -0.015625
v -0.375 0.234375 0.015625
v -0.375 0.234375 -0.015625
vt 0.125 1
vt 0 1
vt 0 0.875
vt 0.125 0.875
vt 0.125 0.875
vt 0.125 1
vt 0 1
vt 0 0.875
vt 0 0.875
vt 0.125 0.875
vt 0.125 1
vt 0 1
vt 0.125 0.875
vt 0.125 1
vt 0 1
vt 0 0.875
vt 0.125 0.875
vt 0.125 1
vt 0 1
vt 0 0.875
vt 0.125 1
vt 0 1
vt 0 0.875
vt 0.125 0.875
vn 1 0 0
vn -1 0 0
vn 0 1 0
vn 0 -1 0
vn 0 0 1
vn 0 0 -1
usemtl none
f 146/433/109 145/434/109 147/435/109 148/436/109
f 151/437/110 149/438/110 150/439/110 152/440/110
f 149/441/111 145/442/111 146/443/111 150/444/111
f 148/445/112 147/446/112 151/447/112 152/448/112
f 147/449/113 145/450/113 149/451/113 151/452/113
f 150/453/114 146/454/114 148/455/114 152/456/114
o mesh
v 0.375 0.078125 0.015625
v 0.375 0.078125 -0.015625
v 0.375 0.046875 0.015625
v 0.375 0.046875 -0.015625
v -0.375 0.078125 0.015625
v -0.375 0.078125 -0.015625
v -0.375 0.046875 0.015625
v -0.375 0.046875 -0.015625
vt 0.125 1
vt 0 1
vt 0 0.875
vt 0.125 0.875
vt 0.125 0.875
vt 0.125 1
vt 0 1
vt 0 0.875
vt 0 0.875
vt 0.125 0.875
vt 0.125 1
vt 0 1
vt 0.125 0.875
vt 0.125 1
vt 0 1
vt 0 0.875
vt 0.125 0.875
vt 0.125 1
vt 0 1
vt 0 0.875
vt 0.125 1
vt 0 1
vt 0 0.875
vt 0.125 0.875
vn 1 0 0
vn -1 0 0
vn 0 1 0
vn 0 -1 0
vn 0 0 1
vn 0 0 -1
usemtl none
f 154/457/115 153/458/115 155/459/115 156/460/115
f 159/461/116 157/462/116 158/463/116 160/464/116
f 157/465/117 153/466/117 154/467/117 158/468/117
f 156/469/118 155/470/118 159/471/118 160/472/118
f 155/473/119 153/474/119 157/475/119 159/476/119
f 158/477/120 154/478/120 156/479/120 160/480/120
o beveled_cuboid
v -0.4375 0.5 -0.03125
v -0.4375 0.5 0.03125
v -0.375 0.5 -0.03125
v -0.375 0.5 0.03125
v -0.4375 0 -0.03125
v -0.4375 0 0.03125
v -0.375 0 -0.03125
v -0.375 0 0.03125
v -0.4375 0.10000000000000003 -0.03125
v -0.4375 0.4 -0.03125
v -0.4375 0.10000000000000003 0.03125
v -0.4375 0.4 0.03125
v -0.375 0.10000000000000003 -0.03125
v -0.375 0.4 -0.03125
v -0.375 0.10000000000000003 0.03125
v -0.375 0.4 0.03125
v -0.4375 0.10000000000000003 -0.03125
v -0.4375 0.4 -0.03125
v -0.375 0.10000000000000003 -0.03125
v -0.375 0.4 -0.03125
v -0.4375 0.10000000000000003 0.03125
v -0.4375 0.4 0.03125
v -0.375 0.10000000000000003 0.03125
v -0.375 0.4 0.03125
vt 0.0625 1
vt 0 1
vt 0 0.8125
vt 0.0625 0.8125
vt 0.0625 0.8125
vt 0.0625 1
vt 0 1
vt 0 0.8125
vt 0 1
vt 0 0.9375
vt 0.0625 0.9375
vt 0.0625 1
vt 0.0625 1
vt 0 1
vt 0 0.9375
vt 0.0625 0.9375
vt 0.0625 0.8125
vt 0.0625 1
vt 0 1
vt 0 0.8125
vt 0.0625 1
vt 0 1
vt 0 0.8125
vt 0.0625 0.8125
vt 0.0625 1
vt 0 1
vt 0 0.9116124999999999
vt 0.0625 0.9116124999999999
vt 0.0625 0.9116124999999999
vt 0.0625 1
vt 0 1
vt 0 0.9116124999999999
vt 0.0625 0.9116124999999999
vt 0.0625 1
vt 0 1
vt 0 0.9116124999999999
vt 0.0625 1
vt 0 1
vt 0 0.9116124999999999
vt 0.0625 0.9116124999999999
vt 0 1
vt 0 0.91160625
vt 0.0625 0.91160625
vt 0.0625 1
vt 0 0.91160625
vt 0.0625 0.91160625
vt 0.0625 1
vt 0 1
vt 0 0.91160625
vt 0.0625 0.91160625
vt 0.0625 1
vt 0 1
vt 0 1
vt 0 0.91160625
vt 0.0625 0.91160625
vt 0.0625 1
vt 0 0.8125
vt 0.08838750000000001 0.8125
vt 0.08838750000000001 1
vt 0 1
vt 0 1
vt 0 0.8125
vt 0.08838750000000001 0.8125
vt 0.08838750000000001 1
vt 0 1
vt 0 0.8125
vt 0.08838750000000001 0.8125
vt 0.08838750000000001 1
vt 0 0.8125
vt 0.08838750000000001 0.8125
vt 0.08838750000000001 1
vt 0 1
vt 0.044193750000000004 0.92345625
vt 0.08838750000000001 1
vt 0 1
vt 0.044193750000000004 0.92345625
vt 0.08838750000000001 1
vt 0 1
vt 0.044193750000000004 0.92345625
vt 0.08838750000000001 1
vt 0 1
vt 0.044193750000000004 0.92345625
vt 0.08838750000000001 1
vt 0 1
vt 0.044193750000000004 1
vt 0 0.92345625
vt 0.08838750000000001 0.92345625
vt 0.044193750000000004 1
vt 0 0.92345625
vt 0.08838750000000001 0.92345625
vt 0.044193750000000004 1
vt 0 0.92345625
vt 0.08838750000000001 0.92345625
vt 0.044193750000000004 1
vt 0 0.92345625
vt 0.08838750000000001 0.92345625
vn -1 0 0
vn 1 0 0
vn 0 1 0
vn 0 -1 0
vn 0 0 -1
vn 0 0 1
vn -0.8479983040050879 -0.52999894000318 0
vn 0.8479983040050879 -0.52999894000318 0
vn 0 -0.52999894000318 -0.8479983040050879
vn 0 -0.52999894000318 0.8479983040050879
vn -0.8479983040050881 0.5299989400031799 0
vn 0.8479983040050881 0.5299989400031799 0
vn 0 0.5299989400031799 -0.8479983040050881
vn 0 0.5299989400031799 0.8479983040050881
vn 0.7071067811865476 0 -0.7071067811865476
vn 0.7071067811865476 0 0.7071067811865476
vn -0.7071067811865476 0 -0.7071067811865476
vn -0.7071067811865476 0 0.7071067811865476
vn 0.6467616667635546 -0.40422604172722154 0.6467616667635546
vn -0.6467616667635546 -0.40422604172722154 0.6467616667635546
vn 0.6467616667635546 -0.40422604172722154 -0.6467616667635546
vn -0.6467616667635546 -0.40422604172722154 -0.6467616667635546
vn 0.6467616667635546 0.4042260417272217 0.6467616667635546
vn -0.6467616667635546 0.4042260417272217 0.6467616667635546
vn 0.6467616667635546 0.4042260417272217 -0.6467616667635546
vn -0.6467616667635546 0.4042260417272217 -0.6467616667635546
usemtl none
f 176/481/121 174/482/121 173/483/121 175/484/121
f 169/485/122 170/486/122 172/487/122 171/488/122
f 161/489/123 162/490/123 164/491/123 163/492/123
f 168/493/124 166/494/124 165/495/124 167/496/124
f 181/497/125 182/498/125 184/499/125 183/500/125
f 180/501/126 178/502/126 177/503/126 179/504/126
f 162/505/127 161/506/127 174/507/127 176/508/127
f 170/509/128 163/510/128 164/511/128 172/512/128
f 182/513/129 161/514/129 163/515/129 184/516/129
f 164/517/130 162/518/130 178/519/130 180/520/130
f 173/521/131 165/522/131 166/523/131 175/524/131
f 168/525/132 167/526/132 169/527/132 171/528/132
f 167/529/133 165/530/133 181/531/133 183/532/133
f 177/533/134 166/534/134 168/535/134 179/536/134
f 175/537/135 177/538/135 178/539/135 176/540/135
f 182/541/136 181/542/136 173/543/136 174/544/136
f 180/545/137 179/546/137 171/547/137 172/548/137
f 169/549/138 183/550/138 184/551/138 170/552/138
f 165/553/139 173/554/139 181/555/139
f 167/556/140 183/557/140 169/558/140
f 166/559/141 177/560/141 175/561/141
f 168/562/142 171/563/142 179/564/142
f 161/565/143 182/566/143 174/567/143
f 163/568/144 170/569/144 184/570/144
f 162/571/145 176/572/145 178/573/145
f 164/574/146 180/575/146 172/576/146